<?xml version="1.0" encoding="utf-8"?>
<svg viewBox="128.649 0 871.351 565.237" style="stroke-linejoin: round; stroke:#000; fill: none;"
   xmlns="http://www.w3.org/2000/svg">
   <defs>
      <style type="text/css" id="style6">
         path {
            fill-rule: evenodd;
         }
      </style>
   </defs>
   <path id="MA" data-name="Massachusetts" data-id="MA"
      d="m 956.31178,153.05085 -0.29118,-0.19412 0,0.29119 0.29118,-0.0971 z m -2.91189,-2.6207 0.67944,-0.29119 0,-0.38825 -0.67944,0.67944 z m 12.03583,-7.57092 -0.0971,-1.35889 -0.19412,-0.7765 0.29119,2.13539 z m -42.41659,-9.9975 -0.67944,0.29119 -5.5326,1.65007 -1.94126,0.67944 -2.23245,0.67944 -0.7765,0.29119 0,0.29119 0.29118,5.04728 0.29119,4.65903 0.29119,4.27078 0.48532,0.29119 1.74714,-0.48532 7.86211,-2.32951 0.19412,0.48531 13.97709,-5.33847 0.0971,0.19413 1.26182,-0.48532 4.4649,-1.74713 4.27078,5.14434 0,0 0.58238,-0.48531 0.29119,-1.45595 -0.0971,2.32952 0,0 0.97063,0 0.29119,1.16475 0.87357,1.65008 0,0 4.56197,-5.5326 3.78546,1.26182 0.87357,-1.94126 6.21204,-3.30015 -2.62071,-5.14435 0.67945,3.30015 -3.20309,2.42658 -3.59133,0.29119 -7.18267,-7.66799 -3.20309,-4.85315 3.20309,-3.39721 -3.30015,-0.19413 -1.35888,-3.20308 -0.0971,-0.19413 -5.53259,6.01791 -12.22996,4.07666 -3.97959,1.26182 0,0 z"
      style="stroke-width:0.97063118000000004;fill:#006064;stroke:#547876" />
   <path id="MN" data-name="Minnesota" data-id="MN"
      d="m 558.54712,73.847349 1.94126,6.891482 4.07665,24.848159 1.94126,9.90044 0.58238,8.73568 2.23246,5.24141 0.48531,4.4649 0.38825,1.45595 -0.0971,0.29119 -3.88252,6.40616 2.52364,4.27078 4.85315,34.16622 0.19413,4.4649 4.85315,-0.29119 19.12144,-1.06769 47.75505,-3.97959 4.7561,-0.48532 0,-0.48531 -1.35889,-7.47386 -5.92085,-3.00896 -4.65903,-4.85315 -7.37679,-4.46491 -2.32952,-0.19412 -3.59133,-2.71777 0.97063,-13.39471 -3.39721,-3.10602 1.16476,-5.43554 6.21204,-5.62966 -1.0677,-11.64757 2.23245,-2.52364 0,0 7.57093,-7.95918 8.63861,-11.065195 3.30015,-2.329514 5.82379,-2.814831 6.11497,-4.561967 -4.07665,0.776505 -2.42658,-1.844199 -9.31806,1.261821 -1.45594,-1.747136 -8.34743,3.397209 -6.69736,-2.814831 -1.84419,-2.232452 -5.33848,0.388253 -3.59133,-1.844199 1.16476,-1.358884 -4.56197,-1.455947 -4.07665,0 -6.50323,2.814831 -1.26182,-1.941263 -10.28869,-1.455947 -3.49427,-8.73568 -0.38826,-2.620705 -4.4649,-1.26182 0.38825,7.47386 -11.8417,0.873568 -14.65653,0.582379 -0.97063,0.09706 z"
      style="stroke-width:0.97063118000000004;fill:#006064;stroke:#547876" />
   <path id="MT" data-name="Montana" data-id="MT"
      d="m 465.65771,72.973781 -32.12789,-2.135389 -23.39221,-2.232451 -23.29515,-2.717768 -14.46241,-1.941262 -23.10102,-3.591336 -11.55051,-1.941262 -25.81879,-4.950219 -2.71777,-0.582379 -4.17371,19.800877 1.8442,3.591335 1.45595,5.532598 -0.87357,0.776505 1.8442,5.047282 2.52364,2.135389 7.18267,12.035829 0.67944,2.03832 2.91189,-0.19412 -3.39721,15.91835 -1.35888,0.38825 -1.8442,5.33847 9.60925,0.67944 0.77651,4.46491 5.43553,13.29765 0.97063,0.7765 3.78546,7.76505 0.97063,-0.7765 8.05624,-0.0971 10.19163,1.0677 2.52364,-3.30015 3.00896,5.43553 0.58238,0.29119 0.0971,-0.58237 1.35888,-9.51219 33.19559,4.07665 26.49823,2.52364 13.97709,1.16476 24.94522,1.45595 1.26182,0.0971 0.29119,0 0.0971,-1.35888 0.29119,-6.69736 0.38825,-8.83274 0.0971,-2.23246 0.19413,-3.88252 1.55301,-30.47782 1.26182,-23.683401 0.0971,-3.882525 -1.8442,-0.09706 z"
      style="stroke-width:0.97063118000000004;fill:#006064;stroke:#547876" />
   <path id="ND" data-name="North Dakota" data-id="ND"
      d="m 556.50879,73.847349 -29.31306,0.582379 -20.48032,-0.09706 -17.56842,-0.388253 -20.57738,-0.776505 -1.0677,-0.09706 -0.0971,3.882525 -1.26182,23.683405 -1.55301,30.47782 -0.19413,3.88252 3.78546,0.19413 42.80484,1.16476 39.50469,-0.29119 16.40367,-0.48532 3.30014,-0.19412 -0.38825,-1.45595 -0.48531,-4.4649 -2.23246,-5.24141 -0.58238,-8.73568 -1.94126,-9.90044 -4.07665,-24.848163 -1.94126,-6.891482 -2.03833,0 z"
      style="stroke-width:0.97063118000000004;fill:#006064;stroke:#547876" />
   <path id="HI" data-name="Hawaii" data-id="HI"
      d="M 434.948 509.927 L 431.939 507.695 L 429.318 508.374 L 429.9 513.81 L 426.309 518.275 L 429.415 525.36 L 430.289 532.64 L 433.88 534.97 L 436.112 531.378 L 440.092 528.466 L 444.945 527.204 L 450.284 522.643 L 445.042 518.178 L 444.945 515.46 L 434.948 509.927 Z M 417.282 502.065 L 415.826 500.803 L 414.467 502.648 L 417.282 502.065 Z M 410.002 497.891 L 410.391 494.3 L 408.546 494.009 L 410.002 497.891 Z M 416.117 491.971 L 414.467 492.747 L 415.632 496.435 L 418.156 496.63 L 418.932 499.833 L 421.65 500.997 L 427.668 498.183 L 422.038 493.524 L 416.117 491.971 Z M 403.693 487.991 L 402.82 490.612 L 406.993 490.515 L 410.876 491.485 L 408.838 488.282 L 403.693 487.991 Z M 391.463 480.323 L 389.231 478.188 L 384.96 481.488 L 387.678 486.535 L 389.619 484.497 L 395.152 485.661 L 394.666 483.332 L 391.463 480.323 Z M 347.979 476.052 L 348.561 474.693 L 350.212 473.82 L 347.979 476.052 Z M 363.412 467.219 L 356.618 469.743 L 355.938 471.587 L 358.656 473.529 L 362.442 474.499 L 365.159 469.161 L 363.412 467.219 Z M 316.337 449.36 L 316.337 449.263 L 316.142 449.263 L 316.337 449.36 Z M 236.842 430.238 Z M 69.214 333.855 Z M 71.155 333.855 Z"
      style="stroke-width:0.97063118000000004;fill:#006064;stroke:#547876" />
   <path id="ID" data-name="Idaho" data-id="ID"
      d="m 309.0949,52.881715 -8.63862,-1.747136 -2.81483,-0.679442 -1.26182,-0.291189 -11.25932,50.666952 0.48532,4.17371 -0.38826,4.36784 0.19413,0.97063 0,0.0971 0.0971,1.84419 3.30015,3.59134 -4.75609,11.93876 -10.09457,13.20059 -0.29119,2.42658 2.62071,6.21204 -9.221,38.24287 -0.38825,2.03832 2.71776,0.58238 27.46887,5.43553 10.96813,2.03833 2.81483,0.48532 2.71777,0.48531 13.97709,2.23245 25.04228,3.78546 2.81483,0.38826 0.38825,-3.20309 0.87357,-6.3091 3.30015,-25.23641 1.74714,-12.52114 0.38825,-3.20309 -0.58238,-0.29119 -3.00896,-5.43553 -2.52364,3.30015 -10.19163,-1.0677 -8.05624,0.0971 -0.97063,0.7765 -3.78546,-7.76505 -0.97063,-0.7765 -5.43553,-13.29765 -0.77651,-4.46491 -9.60925,-0.67944 1.8442,-5.33847 1.35888,-0.38825 3.39721,-15.91835 -2.91189,0.19412 -0.67944,-2.03832 -7.18267,-12.035829 -2.52364,-2.135389 -1.8442,-5.047282 0.87357,-0.776505 -1.45595,-5.532598 -1.8442,-3.591335 4.17371,-19.800877 -0.0971,0 z"
      style="stroke-width:0.97063118000000004;fill:#006064;stroke:#547876" />
   <path id="WA" data-name="Washington" data-id="WA"
      d="m 192.13384,77.050432 0.0971,-1.650073 -0.19412,0.09706 0.0971,1.55301 z m 20.67445,-8.832744 0.58237,-0.970631 -0.67944,-0.09706 0.0971,1.067694 z m -1.8442,-1.747136 0.58237,-1.941262 -0.58237,-0.194127 0,2.135389 z m 7.0856,-2.814831 -0.0971,-1.941262 -1.65007,2.523641 1.74713,-0.582379 z m 0.19413,-4.076651 0.29119,-1.941262 -0.19413,-0.485316 -0.0971,2.426578 z m 0.29119,-9.512185 -0.0971,-1.067695 -0.38826,-0.09706 0.48532,1.164758 z m 3.10602,-6.406166 -0.87357,-0.09706 -1.74713,2.717767 2.6207,-2.620704 z m -2.42658,-2.620705 0.48532,-0.388252 0.0971,-0.291189 -0.58238,0.679441 z m -0.48531,0.29119 -0.29119,-1.941263 -0.87357,1.650073 1.16476,0.29119 z m -0.48532,-2.717768 -0.87357,-0.388252 0.67944,0.970631 0.19413,-0.582379 z m 2.91189,1.650074 0,-1.261821 -0.29119,0.485316 0.29119,0.776505 z m 0.87357,-1.261821 -0.38825,-0.291189 -0.0971,0 0.48531,0.291189 z m -5.5326,-2.135389 -0.48531,-0.388252 -0.19413,-0.09706 0.67944,0.485315 z m 3.59134,-0.388252 -2.6207,0.679442 0.67944,0.194126 1.94126,-0.873568 z m -2.13539,-0.194126 -0.48531,-0.582379 -0.0971,0.09706 0.58238,0.485316 z m 2.03833,-1.164758 -0.38826,0 0.48532,0.194126 -0.0971,-0.194126 z m -19.02438,49.793381 3.49428,3.785461 -0.58238,7.279734 0.67944,1.8442 5.24141,2.81483 14.75359,1.35888 0.58238,1.74714 6.98855,0.0971 6.60029,0.87357 10.774,-1.16476 5.33848,0.87357 1.45594,-0.67944 27.27474,6.21204 1.8442,0.38825 -0.19413,-0.97063 0.38826,-4.36784 -0.48532,-4.17371 11.25932,-50.666952 -1.55301,-0.29119 -22.71277,-5.338471 -19.80087,-5.047282 -22.42159,-6.21204 -6.69735,-1.650073 1.55301,8.444491 -1.45595,2.717768 -2.6207,-1.358884 2.52364,11.744637 -2.71777,3.882525 -1.26182,3.591336 0,3.688398 -5.72672,3.979588 -2.42658,-1.55301 -2.32952,1.164758 4.27078,-5.532598 -1.06769,3.785462 2.42658,-2.620705 1.94126,0.388253 -0.58238,-4.853156 1.26182,0.194126 2.6207,-5.823787 -0.87356,-0.873568 -3.39721,4.36784 -2.23246,0.09706 2.42658,-2.717767 2.71777,-0.679442 -0.97063,-4.950219 -2.71777,-0.679442 -1.35888,-2.329515 -1.65008,0.873568 -8.9298,-3.882524 -7.86211,-6.114977 -2.13539,5.92085 -0.19413,2.523641 1.65007,4.464904 -1.06769,14.462405 -0.77651,2.232452 4.36784,0.388252 -4.36784,3.10602 2.32952,1.164757 -1.8442,6.21204 -0.87357,-4.853156 -1.65007,5.629661 2.23245,2.717767 2.42658,-0.194126 2.91189,1.747136 1.45595,2.814831 1.74713,0 0,0 z"
      style="stroke-width:0.97063118000000004;fill:#006064;stroke:#547876" />
   <path id="AZ" data-name="Arizona" data-id="AZ"
      d="m 372.18593,309.90486 -32.71027,-4.07665 -17.56843,-2.52365 -25.04228,-3.97958 -2.52364,-0.38826 0,0.19413 -4.27078,18.83025 -2.23245,-0.0971 -3.39721,-3.00895 -4.27078,3.59133 -0.0971,15.43304 -1.55301,3.30014 0,0.29119 0,0.0971 -0.19413,2.42657 3.39721,9.12394 3.00896,4.07665 -5.43554,3.20308 -2.13539,3.97959 -3.49427,8.54155 -1.74713,0.38826 -0.0971,7.0856 3.00896,2.23246 -1.55301,4.27077 -3.49427,0.19413 0,0 -2.03833,3.78546 6.98855,4.36784 13.20058,7.3768 40.76651,21.64507 34.55447,4.27078 0.38825,0 2.71777,-28.63362 0.67944,-7.08561 7.27974,-75.12685 0.38825,-3.49427 -2.52364,-0.29119 z"
      style="stroke-width:0.97063118000000004;fill:#006064;stroke:#547876" />
   <path id="CA" data-name="California" data-id="CA"
      d="m 206.01387,363.77489 0.38825,2.13539 0,0.38825 -0.38825,-2.52364 z m -14.26828,-8.34743 0.67944,1.45595 0.38825,-0.0971 -1.06769,-1.35888 z m 16.98604,-0.29119 0.29119,2.52364 1.74714,1.26182 -2.03833,-3.78546 z m -11.74463,-13.78296 -1.0677,-0.29119 0.87357,0.38825 0.19413,-0.0971 z m -10.77401,-2.9119 -2.6207,1.55301 0.67944,0.67945 1.94126,-2.23246 z m -5.04728,-1.8442 -0.19413,0.77651 0.87357,0.19413 -0.67944,-0.97064 z m 8.54155,1.94127 4.27078,2.42658 0.77651,-0.67945 -5.04729,-1.74713 z m -33.09852,-85.51261 -0.0971,0.0971 0.0971,-0.0971 0,0 z m 10.38575,0.48531 -0.0971,-0.29119 0,0.38826 0.0971,-0.0971 z m 56.00542,-73.6709 -3.78546,-0.97064 -41.54301,-11.45344 -15.43304,-4.65903 0,0.38825 -0.87357,9.60925 -4.07665,11.35638 -6.79442,8.44449 -0.19412,4.27078 3.30014,5.92085 1.65008,7.76505 -2.32952,6.3091 0.38825,6.30911 -1.16475,2.6207 3.97958,8.63862 2.52364,3.30015 -0.19412,9.41512 6.01791,5.72672 3.49427,-5.82378 3.78547,3.00895 1.45594,-1.35888 -5.24141,0.97063 -0.0971,4.95022 1.0677,6.21204 -2.9119,-2.81483 -1.65007,-3.78546 -0.48532,5.2414 1.35889,10.38576 5.43553,6.69735 -3.59133,4.65903 0.58237,5.92085 3.88253,6.01792 6.79442,18.63612 2.13539,1.16475 -0.67945,12.9094 1.0677,1.55301 14.55947,5.24141 4.4649,4.75609 1.55301,3.10602 4.27078,2.42658 4.65903,0.87357 1.94126,5.33847 3.88252,1.8442 5.82379,6.89148 5.43554,9.02687 -0.38826,8.34743 3.00896,3.97958 39.69882,3.88253 0,0 3.49427,-0.19413 1.55301,-4.27077 -3.00896,-2.23246 0.0971,-7.0856 1.74713,-0.38826 3.49427,-8.54155 2.13539,-3.97959 5.43554,-3.20308 -3.00896,-4.07665 -3.39721,-9.12394 0.19413,-2.42657 0,-0.0971 -2.52364,-3.39721 -7.76505,-10.38575 -15.04479,-21.15976 -20.96563,-30.08957 -11.8417,-16.40366 -11.45345,-16.50074 13.20058,-56.00542 0.87357,-3.68839 z"
      style="stroke-width:0.97063118000000004;fill:#006064;stroke:#547876" />
   <path id="CO" data-name="Colorado" data-id="CO"
      d="m 489.6323,255.54951 0.38826,-19.02437 -4.65903,-0.19413 -23.6834,-0.87357 -2.32952,-0.0971 -1.94126,-0.0971 -28.82775,-1.8442 -19.2185,-1.55301 -23.97459,-2.32952 -2.32951,-0.29119 -0.29119,2.52365 -5.24141,50.56988 -1.8442,17.66549 -0.7765,7.66799 -0.19413,2.52364 3.00896,0.29119 48.91981,4.27077 21.54801,1.35889 21.45095,0.97063 3.10602,0.0971 1.94126,0.0971 4.07665,0.0971 1.94127,0.0971 6.11497,0.19413 1.55301,0 0,-1.94127 1.0677,-51.34639 0.0971,-5.72672 0,-1.8442 0.0971,-1.26182 z"
      style="stroke-width:0.97063118000000004;fill:#006064;stroke:#547876" />
   <path id="NV" data-name="Nevada" data-id="NV"
      d="m 294.82662,295.8307 10.09457,-62.79983 5.14434,-31.44846 0.58238,-3.10601 -2.81483,-0.48532 -10.96813,-2.03833 -27.46887,-5.43553 -2.71776,-0.58238 -2.71777,-0.58238 -13.6859,-3.00895 -24.55697,-5.82379 -2.71777,-0.67944 -0.87357,3.68839 -13.20058,56.00542 11.45345,16.50074 11.8417,16.40366 20.96563,30.08957 15.04479,21.15976 7.76505,10.38575 2.52364,3.39721 0,-0.29119 1.55301,-3.30014 0.0971,-15.43304 4.27078,-3.59133 3.39721,3.00895 2.23245,0.0971 4.27078,-18.83025 0,-0.19413 0.48531,-3.10602 z"
      style="stroke-width:0.97063118000000004;fill:#006064;stroke:#547876" />
   <path id="NM" data-name="New Mexico" data-id="NM"
      d="m 472.45213,324.75551 0.0971,-2.52364 0.0971,-2.52364 0.0971,-2.52364 -3.10602,-0.0971 -21.45095,-0.97063 -21.54801,-1.35889 -48.91981,-4.27077 -3.00896,-0.29119 -0.38825,3.49427 -7.27974,75.12685 -0.67944,7.08561 -2.71777,28.63362 0.38826,0.0971 13.39471,1.26183 1.26182,-6.79442 2.42658,-1.94127 27.17767,2.42658 0.19413,0 -2.42658,-4.75609 12.32701,0.87357 30.76901,1.74713 19.2185,0.87357 3.30015,-91.0452 0.67944,0.0971 0.0971,-2.62071 z"
      style="stroke-width:0.97063118000000004;fill:#006064;stroke:#547876" />
   <path id="OR" data-name="Oregon" data-id="OR"
      d="m 162.2384,162.75717 15.43304,4.65903 41.54301,11.45344 3.78546,0.97064 2.71777,0.67944 24.55697,5.82379 13.6859,3.00895 2.71777,0.58238 0.38825,-2.03832 9.221,-38.24287 -2.62071,-6.21204 0.29119,-2.42658 10.09457,-13.20059 4.75609,-11.93876 -3.30015,-3.59134 -0.0971,-1.84419 0,-0.0971 -1.8442,-0.38825 -27.27474,-6.21204 -1.45594,0.67944 -5.33848,-0.87357 -10.774,1.16476 -6.60029,-0.87357 -6.98855,-0.0971 -0.58238,-1.74714 -14.75359,-1.35888 -5.24141,-2.81483 -0.67944,-1.8442 0.58238,-7.279734 -3.49428,-3.785461 -0.29118,0.09706 -0.67945,0.485315 -4.85315,-2.523641 -2.9119,0.873568 -1.94126,-0.970631 -2.03832,8.347429 -1.35889,2.329514 -6.01791,14.656531 -1.74714,8.05624 -1.06769,0.0971 -5.62966,13.39471 -3.78546,5.72672 -1.35889,0.97063 -3.49427,6.79442 -0.67944,7.18267 -2.13539,6.40617 1.26182,5.82378 0,0.0971 z m 35.5251,-79.688825 -0.29119,-0.873568 -0.0971,0.679442 0.38825,0.194126 z"
      style="stroke-width:0.97063118000000004;fill:#006064;stroke:#547876" />
   <path id="UT" data-name="Utah" data-id="UT"
      d="m 352.38505,204.97962 -25.04228,-3.78546 -13.97709,-2.23245 -2.71777,-0.48531 -0.58238,3.10601 -5.14434,31.44846 -10.09457,62.79983 -0.48531,3.10602 2.52364,0.38826 25.04228,3.97958 17.56843,2.52365 32.71027,4.07665 2.52364,0.29119 0.19413,-2.52364 0.7765,-7.66799 1.8442,-17.66549 5.24141,-50.56988 0.29119,-2.52365 -1.94126,-0.19412 -24.7511,-3.00896 -3.78546,-0.48531 2.42658,-18.92731 0.19412,-1.26182 -2.81483,-0.38826 z"
      style="stroke-width:0.97063118000000004;fill:#006064;stroke:#547876" />
   <path id="WY" data-name="Wyoming" data-id="WY"
      d="m 461.38694,192.16729 0.7765,-15.14184 0.97063,-20.38326 0.0971,-2.52364 -1.26182,-0.0971 -24.94522,-1.45595 -13.97709,-1.16476 -26.49823,-2.52364 -33.19559,-4.07665 -1.35888,9.51219 -0.0971,0.58237 -0.38825,3.20309 -1.74714,12.52114 -3.30015,25.23641 -0.87357,6.3091 -0.38825,3.20309 -0.19412,1.26182 -2.42658,18.92731 3.78546,0.48531 24.7511,3.00896 1.94126,0.19412 2.32951,0.29119 23.97459,2.32952 19.2185,1.55301 28.82775,1.8442 1.94126,0.0971 0.0971,-2.52364 0.48532,-10.19163 0.87357,-17.76255 0.38825,-7.57092 0.0971,-2.52364 0.0971,-2.62071 z"
      style="stroke-width:0.97063118000000004;fill:#006064;stroke:#547876" />
   <path id="AR" data-name="Arkansas" data-id="AR"
      d="m 690.4559,328.05566 -10.48282,1.55301 4.27078,-6.79442 -1.8442,-3.78546 -36.98105,3.59134 -31.25432,2.52364 -4.56197,0.29119 0.58238,2.71776 3.78546,19.60675 0.0971,4.36784 1.0677,26.40117 0.0971,4.36784 0.29119,0.0971 1.45595,1.55301 5.82378,-0.19413 0.58238,8.54155 0.19413,2.42658 3.00896,-0.29119 9.22099,-0.67944 36.5928,-3.39721 0.19412,0 -0.0971,-2.13539 0.97063,-0.67944 -1.74713,-3.30014 3.6884,-15.5301 -1.45595,-1.74714 5.5326,-6.11498 -0.38826,-5.2414 4.07665,-6.79442 0,-0.0971 -0.19412,-0.19412 3.49427,-3.20309 -0.97063,-3.88252 2.71777,-4.27078 -0.58238,-3.97959 2.91189,-5.62966 0,-0.0971 -0.0971,0 z"
      style="stroke-width:0.97063118000000004;fill:#006064;stroke:#547876" />
   <path id="IA" data-name="Iowa" data-id="IA"
      d="m 661.53109,197.69989 -5.33847,-2.81483 -2.9119,-3.97959 -0.97063,-5.72672 0.77651,-2.62071 -2.81483,-3.39721 0,0 -4.7561,0.48532 -47.75505,3.97959 -19.12144,1.06769 -4.85315,0.29119 -2.03833,0.0971 1.65008,10.77401 -1.35889,5.14435 2.13539,3.20308 0,0.67944 0.67944,0.0971 3.10602,9.12394 3.00896,4.75609 0.19413,5.43554 3.30014,4.56196 -0.58238,1.94126 3.00896,12.22996 0,0.29119 0,0 19.89794,-0.58238 21.25682,-1.8442 20.86857,-2.62071 4.7561,4.17372 0.19412,0.19412 0.87357,-0.38825 -0.67944,-3.78546 3.59133,-2.23245 1.45595,-9.90044 -1.45595,-0.67944 0.87357,-5.04728 4.36784,-0.87357 4.85316,-3.49427 2.13539,-6.11498 0.0971,-3.10602 -3.88252,-3.6884 -1.16476,-2.32951 -3.6884,-2.32952 0.19413,-0.48531 0.0971,-0.48532 z"
      style="stroke-width:0.97063118000000004;fill:#006064;stroke:#547876" />
   <path id="KS" data-name="Kansas" data-id="KS"
      d="m 608.92288,312.71969 -2.42658,-41.0577 -4.36784,-2.52364 -0.38825,-1.94127 -3.49428,-3.10602 3.39721,-4.17371 -1.35888,-2.42658 -2.52364,0.0971 -2.32952,-1.65008 -0.97063,-0.7765 -3.30014,0.19412 -35.81629,1.35889 -16.40367,0.38825 -32.61321,0 -13.10352,-0.19413 -3.6884,-0.0971 0,1.8442 -0.0971,5.72672 -1.0677,51.34639 0,1.94127 4.17372,0.0971 22.51864,0.29119 52.70528,-0.77651 37.56342,-1.74713 3.6884,-0.29119 -0.0971,-2.52364 z"
      style="stroke-width:0.97063118000000004;fill:#006064;stroke:#547876" />
   <path id="MO" data-name="Missouri" data-id="MO"
      d="m 653.66898,242.44599 -4.7561,-4.17372 -20.86857,2.62071 -21.25682,1.8442 -19.89794,0.58238 0,0 -0.0971,0.58238 2.42657,4.65903 2.23246,1.553 2.6207,4.65903 0.38825,0.38826 0.97063,0.7765 2.32952,1.65008 2.52364,-0.0971 1.35888,2.42658 -3.39721,4.17371 3.49428,3.10602 0.38825,1.94127 4.36784,2.52364 2.42658,41.0577 0.0971,2.52364 0.19413,2.52364 0.0971,2.52364 0.19413,2.6207 0.0971,2.52365 4.56197,-0.29119 31.25432,-2.52364 36.98105,-3.59134 1.8442,3.78546 -4.27078,6.79442 10.48282,-1.55301 0.0971,0 0,-0.7765 0.19413,-4.46491 1.94126,-2.42658 -0.58238,-2.71776 -0.0971,-0.0971 -0.0971,-0.0971 0.38825,-1.26182 0.58238,0.19413 0.29119,0.7765 -0.0971,0.29119 0,0.0971 0,0.77651 0.38826,0.0971 0.7765,-0.97063 0,-0.0971 0.0971,-0.29119 2.52364,-1.55301 0.38826,-0.19413 0.87357,-7.95917 -0.19413,-0.38826 -0.29119,-0.0971 -6.89148,-5.62966 1.06769,-2.03833 -1.94126,-5.53259 -3.49427,-2.71777 -6.60029,-2.9119 -4.17372,-3.3972 0.48532,-6.98855 1.26182,-6.50323 -6.98855,0.38825 -2.13539,-2.23245 -0.97063,-4.4649 -11.06519,-9.31806 -3.10602,-8.63862 0.7765,-4.27078 0,0 -0.19412,-0.19412 z"
      style="stroke-width:0.97063118000000004;fill:#006064;stroke:#547876" />
   <path id="NE" data-name="Nebraska" data-id="NE"
      d="m 572.33008,204.68843 -3.00895,-3.00895 -10.57988,-3.10602 -3.39721,-0.0971 -5.14435,1.45594 -6.11498,-3.88252 -19.12143,0.19412 -27.85712,-0.29119 -32.90439,-1.06769 -2.9119,-0.0971 -0.0971,2.52364 -0.38825,7.57092 -0.87357,17.76255 -0.48532,10.19163 -0.0971,2.52364 2.32952,0.0971 23.6834,0.87357 4.65903,0.19413 -0.38826,19.02437 -0.0971,1.26182 3.6884,0.0971 13.10352,0.19413 32.61321,0 16.40367,-0.38825 35.81629,-1.35889 3.30014,-0.19412 -0.38825,-0.38826 -2.6207,-4.65903 -2.23246,-1.553 -2.42657,-4.65903 0.0971,-0.58238 0,-0.29119 -3.00896,-12.22996 0.58238,-1.94126 -3.30014,-4.56196 -0.19413,-5.43554 -3.00896,-4.75609 -3.10602,-9.12394 -0.67944,-0.0971 -1.8442,-0.19413 z"
      style="stroke-width:0.97063118000000004;fill:#006064;stroke:#547876" />
   <path id="OK" data-name="Oklahoma" data-id="OK"
      d="m 609.50526,322.91131 -0.19413,-2.6207 -0.0971,-2.52364 -0.19413,-2.52364 -3.6884,0.29119 -37.56342,1.74713 -52.70528,0.77651 -22.51864,-0.29119 -4.17372,-0.0971 -1.55301,0 -6.11497,-0.19413 -1.94127,-0.0971 -4.07665,-0.0971 -1.94126,-0.0971 -0.0971,2.52364 -0.0971,2.52364 -0.0971,2.52364 -0.0971,2.62071 0.58238,0 23.48927,0.58238 24.84816,0.29119 0.29119,33.19558 1.74714,5.82379 3.88252,3.6884 4.17372,0.19413 0.87356,-1.74714 5.72673,5.24141 7.47386,0.7765 1.35888,1.55301 2.71777,-1.26182 6.79442,3.20309 0,1.84419 2.52364,-0.0971 2.6207,-2.23245 4.85316,3.10602 4.56197,1.65007 3.10601,-4.27077 9.90044,4.65902 3.6884,-3.00895 3.00896,-1.16476 2.42658,0.58238 9.12393,-2.6207 4.85316,2.03832 4.36784,2.81483 3.78546,0.67944 0.0971,0 -0.0971,-4.36784 -1.0677,-26.40117 -0.0971,-4.36784 -3.78546,-19.60675 -0.58238,-2.71776 -0.0971,-2.52365 z"
      style="stroke-width:0.97063118000000004;fill:#006064;stroke:#547876" />
   <path id="SD" data-name="South Dakota" data-id="SD"
      d="m 566.89455,135.57949 -16.40367,0.48532 -39.50469,0.29119 -42.80484,-1.16476 -3.78546,-0.19413 -0.0971,2.23246 -0.38825,8.83274 -0.29119,6.69736 -0.0971,1.35888 -0.29119,0 -0.0971,2.52364 -0.97063,20.38326 -0.7765,15.14184 -0.0971,2.62071 2.9119,0.0971 32.90439,1.06769 27.85712,0.29119 19.12143,-0.19412 6.11498,3.88252 5.14435,-1.45594 3.39721,0.0971 10.57988,3.10602 3.00895,3.00895 1.8442,0.19413 0,-0.67944 -2.13539,-3.20308 1.35889,-5.14435 -1.65008,-10.77401 2.03833,-0.0971 -0.19413,-4.4649 -4.85315,-34.16622 -2.52364,-4.27078 3.88252,-6.40616 0.0971,-0.29119 -3.30014,0.19412 z"
      style="stroke-width:0.97063118000000004;fill:#006064;stroke:#547876" />
   <path id="LA" data-name="Louisiana" data-id="LA"
      d="m 688.99995,469.2825 -1.26182,0.29119 -0.58238,0.58238 1.8442,-0.87357 z m 4.07665,0 -0.67944,-0.29119 -0.19412,0.29119 0.87356,0 z m 2.32952,-0.77651 -0.67944,0 -0.38826,0.48532 1.0677,-0.48532 z m -1.16476,-0.67944 -0.19413,-0.29119 -0.0971,0.29119 0.29119,0 z m 7.76505,-5.14434 -0.29119,0.19412 0.48532,0 -0.19413,-0.19412 z m 13.58884,-5.72673 0.58238,-0.7765 -0.67945,0.87357 0.0971,-0.0971 z m 1.94126,-2.52364 -0.19413,0.0971 0,0.0971 0.19413,-0.19413 z m -49.89044,8.54156 1.45594,-1.8442 -3.97959,-1.0677 -1.74713,1.45595 4.27078,1.45595 z m 40.28119,-8.44449 -0.38825,-0.38826 -0.0971,0.19413 0.48532,0.19413 z m 1.06769,-1.74714 -0.97063,-0.29119 0.29119,0.97063 0.67944,-0.67944 z m 7.95918,-1.65007 0,-0.29119 0,0.0971 0,0.19413 z m 1.94126,-1.26182 -0.0971,-0.0971 0.0971,0.19413 0,-0.0971 z m -0.7765,-0.19413 -0.19413,-0.0971 -0.0971,0.29119 0.29119,-0.19413 z m -6.79442,-0.29119 0.87357,-0.29119 0,-0.29119 -0.87357,0.58238 z m 0.48532,-0.48532 0.48531,-0.48531 -0.0971,-0.0971 -0.38825,0.58237 z m -3.39721,-3.59133 -0.19413,0.19413 0.0971,0 0.0971,-0.19413 z m -35.8163,-54.35535 -0.19412,0 -36.5928,3.39721 -9.22099,0.67944 -3.00896,0.29119 0.0971,2.32952 1.94126,18.73318 3.20309,4.4649 0.0971,2.62071 3.10602,5.43553 2.52364,7.95918 -0.87357,4.4649 -0.67944,11.0652 -1.45594,3.59133 0.19412,0 0.29119,2.52364 -1.65007,2.32952 12.03582,-1.35889 9.41513,2.62071 6.69735,0.87357 3.39721,-2.42658 -1.8442,-2.42658 6.21204,-1.94126 -0.19412,2.13539 3.20308,-0.77651 2.6207,4.07665 2.23245,-0.7765 5.82379,3.97959 -3.59133,1.26182 8.25036,2.42657 3.10602,0 1.8442,-2.23245 3.97959,-2.13539 2.81483,4.07666 1.94126,-3.6884 -0.58238,-5.82379 5.24141,2.03833 0.58238,1.74713 6.21204,0.77651 3.10602,2.52364 -0.38825,2.03832 4.36784,-4.07665 -1.65008,-2.13539 -7.27973,-1.8442 -2.71777,-1.55301 -0.0971,-2.91189 3.00896,0.38825 2.32951,-4.75609 -3.00896,-4.17371 -1.65007,3.97958 -3.78546,-0.67944 2.6207,-4.27078 -1.74713,-0.48531 -4.27078,3.00896 -6.11498,0.38825 -1.74713,-1.35889 2.81483,-4.95021 3.30014,-0.0971 5.62967,1.8442 4.07665,0.38825 0,0 -2.23245,-2.81483 -4.27078,-8.34742 1.16476,-4.65903 -33.48678,3.68839 1.26182,-1.26182 -1.35888,-3.49427 2.03832,-3.00896 1.16476,-7.57092 7.3768,-12.6182 -3.59134,-4.36784 0.19413,-3.20309 -2.23246,-5.24141 0,-0.67944 z"
      style="stroke-width:0.97063118000000004;fill:#006064;stroke:#547876" />
   <path id="TX" data-name="Texas" data-id="TX"
      d="m 573.98015,536.93549 -4.65902,-17.56842 0,3.30015 4.65902,14.26827 z m -1.06769,-30.86607 -3.30015,6.21204 -0.38825,2.03833 3.6884,-8.25037 z m 2.6207,-4.56196 3.10602,-4.07666 -2.23245,1.35889 -0.87357,2.71777 z m 10.96814,-9.90044 -7.27974,3.78546 2.03833,-0.38825 5.24141,-3.39721 z m 0.97063,-1.35889 2.03832,-1.65007 -0.7765,0.19413 -1.26182,1.45594 z m -115.11686,-162.87191 -0.67944,-0.0971 -3.30015,91.0452 -19.2185,-0.87357 -30.76901,-1.74713 -12.32701,-0.87357 2.42658,4.75609 0.0971,0.0971 10.48282,10.48281 6.01791,7.08561 7.95917,5.92085 5.62967,10.28869 2.13538,10.77401 4.56197,3.00895 3.59134,3.97959 5.14434,1.8442 7.47386,4.75609 3.39721,1.26183 4.65903,-4.65903 1.45595,-4.95022 2.42658,-4.7561 7.57092,-3.00895 2.91189,1.45594 8.44449,0.67945 7.66799,4.75609 5.24141,0.97063 -1.45595,2.71777 3.00896,1.94126 2.81483,3.39721 0.58238,3.59133 1.8442,2.42658 4.27077,10.28869 4.27078,3.59134 3.30015,5.43553 4.17371,4.27078 1.8442,0.58238 1.55301,11.06519 4.56197,2.52365 0.19412,3.49427 1.16476,-0.29119 7.95918,9.70631 3.97959,0.87357 5.04728,3.00896 7.76505,0 5.62966,3.10601 6.69735,-1.45594 -3.00895,-2.81483 -2.71777,-8.1533 -1.06769,-7.08561 -1.55301,-2.32952 0.67944,-4.75609 -2.03833,-0.19413 -2.71777,-4.4649 3.10602,3.30015 3.59134,-1.26182 1.94126,-5.14435 -3.88252,-5.24141 5.82378,0.67944 2.71777,-4.17371 -0.38825,-1.45595 2.42658,-3.20308 -0.58238,2.81483 2.71777,-2.13539 -1.0677,-3.78546 3.49427,1.8442 4.46491,-2.52364 -4.36784,-4.56197 2.71776,1.0677 5.04729,0.29119 6.60029,-1.45595 7.3768,-4.95022 4.4649,-3.6884 0.67944,-2.71777 2.71777,-2.81483 -1.45595,-4.65903 0.29119,-2.91189 4.85316,-2.13539 -0.38826,5.14435 2.9119,0 -3.20308,2.71776 12.90939,-6.79441 2.13539,-0.0971 1.35888,-6.21204 0.38826,0 1.45594,-3.59133 0.67944,-11.0652 0.87357,-4.4649 -2.52364,-7.95918 -3.10602,-5.43553 -0.0971,-2.62071 -3.20309,-4.4649 -1.94126,-18.73318 -0.0971,-2.32952 -0.19413,-2.42658 -0.58238,-8.54155 -5.82378,0.19413 -1.45595,-1.55301 -0.29119,-0.0971 -0.0971,0 -3.78546,-0.67944 -4.36784,-2.81483 -4.85316,-2.03832 -9.12393,2.6207 -2.42658,-0.58238 -3.00896,1.16476 -3.6884,3.00895 -9.90044,-4.65902 -3.10601,4.27077 -4.56197,-1.65007 -4.85316,-3.10602 -2.6207,2.23245 -2.52364,0.0971 0,-1.84419 -6.79442,-3.20309 -2.71777,1.26182 -1.35888,-1.55301 -7.47386,-0.7765 -5.72673,-5.24141 -0.87356,1.74714 -4.17372,-0.19413 -3.88252,-3.6884 -1.74714,-5.82379 -0.29119,-33.19558 -24.84816,-0.29119 -23.48927,-0.58238 -0.58238,0 z"
      style="stroke-width:0.97063118000000004;fill:#006064;stroke:#547876" />
   <path id="CT" data-name="Connecticut" data-id="CT"
      d="m 936.99622,143.34454 -13.97709,5.33847 -0.19412,-0.48531 -7.86211,2.32951 -1.74714,0.48532 0.19413,0.97063 3.68839,14.26828 1.16476,1.45595 -2.52364,3.10602 1.74714,1.65007 0,0 5.62966,-5.43554 3.00895,-4.17371 0.58238,1.16476 14.17122,-6.30911 0.29119,-0.29118 -0.0971,-2.32952 -0.58237,-2.03833 -3.00896,-8.44449 -0.38825,-1.06769 -0.0971,-0.19413 z"
      style="stroke-width:0.97063118000000004;fill:#006064;stroke:#547876" />
   <path id="NH" data-name="New Hampshire" data-id="NH"
      d="m 923.8927,75.982738 -1.26182,1.55301 -1.45594,-0.29119 -0.77651,6.406166 0,0.09706 2.32952,8.735681 -0.19413,1.747136 -4.17372,5.532598 1.0677,5.047281 0,6.30911 -0.77651,5.82378 4.36784,15.91836 0,0 0,0 3.97959,-1.26182 12.22996,-4.07666 5.53259,-6.01791 0,0 0,-1.55301 0.29119,-2.52364 -0.67944,0.29119 -0.0971,-0.58238 -6.11498,-7.47386 -0.19413,-0.67944 -14.07415,-33.001465 0,0 z"
      style="stroke-width:0.97063118000000004;fill:#006064;stroke:#547876" />
   <path id="RI" data-name="Rhode Island" data-id="RI"
      d="m 946.50841,152.08022 -0.0971,-2.03832 -0.29119,0.7765 0.38825,1.26182 z m 1.94126,-1.55301 -1.26182,-2.42657 -0.0971,2.52364 1.35888,-0.0971 z m -0.58238,-3.00895 0.67944,1.74713 0.87357,1.55301 0.58238,-1.16475 -0.87357,-1.65008 -0.29119,-1.16475 -0.97063,0 0,0.67944 z m -10.774,-3.97959 0.38825,1.06769 3.00896,8.44449 0.58237,2.03833 0.0971,2.32952 0.19412,-0.29119 4.65903,-3.6884 -0.87356,-6.60029 1.94126,-0.38826 0,0 -4.27078,-5.14434 -4.4649,1.74713 -1.26182,0.48532 z"
      style="stroke-width:0.97063118000000004;fill:#006064;stroke:#547876" />
   <path id="VT" data-name="Vermont" data-id="VT"
      d="m 923.01913,132.86173 -4.36784,-15.91836 0.77651,-5.82378 0,-6.30911 -1.0677,-5.047278 4.17372,-5.532598 0.19413,-1.747136 -2.32952,-8.735681 -1.26182,0.485316 -5.33847,1.941262 -5.24141,2.038326 -12.03583,4.36784 -0.67944,0.194126 4.36784,10.191633 1.45595,9.60924 5.14434,8.05624 4.85316,15.91835 0.19413,-0.0971 0.7765,-0.29119 2.23245,-0.67944 1.94126,-0.67944 5.5326,-1.65007 0.67944,-0.29119 0,0 z"
      style="stroke-width:0.97063118000000004;fill:#006064;stroke:#547876" />
   <path id="AL" data-name="Alabama" data-id="AL"
      d="m 718.31301,344.84758 0.38826,0.77651 1.35888,0.87356 0.58238,39.79588 0.19413,21.8392 4.95021,29.89545 0.38826,-0.0971 4.36784,0.87357 1.16475,-8.63862 1.94127,4.85316 3.30014,3.00896 6.30911,-3.6884 -0.67945,-0.58238 0.19413,0.0971 -4.36784,-9.9975 41.93127,-6.79442 2.81483,-0.48531 0,-0.0971 -2.62071,-4.95022 -0.19412,-7.0856 -2.13539,-3.88253 1.06769,-7.57092 1.74714,-1.94126 -7.18267,-12.81234 -13.00646,-39.60175 -0.0971,-0.19413 -2.9119,0.48532 -15.5301,2.52364 -7.76504,0.97063 -16.30661,2.23245 0.0971,0.19413 z"
      style="stroke-width:0.97063118000000004;fill:#006064;stroke:#547876" />
   <path id="FL" data-name="Florida" data-id="FL"
      d="m 854.6867,535.28542 -0.19413,0 0.0971,0.0971 0.0971,-0.0971 z m -0.87357,-0.0971 0,0.0971 0.0971,0 -0.0971,-0.0971 z m 0.19413,-0.0971 0,-0.0971 0,0.0971 0,0 z m -13.20059,1.45594 0,0 0,0.0971 0,-0.0971 z m -0.19412,0.0971 0,-0.0971 0,0.0971 0,0 z m 0.0971,-0.0971 0,0 0,0 0,0 z m -0.97063,0.0971 -0.0971,0 0,0.0971 0.0971,-0.0971 z m 27.56592,-6.11498 -0.0971,0 0.0971,0.19412 0,-0.19412 z m 2.62071,-0.67944 0,-0.19413 -0.19413,0.29119 0.19413,-0.0971 z m -0.97063,-0.19413 -0.38826,-0.38825 -0.0971,0.0971 0.48532,0.29119 z m -0.29119,0.77651 -1.16476,-1.45595 0.67944,1.26182 0.48532,0.19413 z m 9.22099,-5.72673 0,0.38825 0.19413,-0.19412 -0.19413,-0.19413 z m 1.35889,-0.97063 0.29119,-0.48532 -0.38826,0.38826 0.0971,0.0971 z m 0.29119,-0.97063 -0.0971,0 0,0.0971 0.0971,-0.0971 z m -1.74714,-0.29119 -0.0971,-0.0971 0.0971,0.0971 0,0 z m 0.87357,-1.45595 -0.0971,-0.0971 0,0.19413 0.0971,-0.0971 z m -2.62071,-0.0971 -0.0971,-0.0971 0.0971,0.0971 0,0 z m 3.30015,-2.23245 -0.19413,0.0971 0.29119,0.0971 -0.0971,-0.19412 z m 0.38825,0 -0.19412,-0.19413 0.0971,0.29119 0.0971,-0.0971 z m -0.67944,-0.19413 -0.0971,-0.0971 0,0.19412 0.0971,-0.0971 z m 3.59134,-0.67944 0,-0.0971 -0.19413,0.38825 0.19413,-0.29119 z m -4.07665,0.38825 -0.19413,0 0.19413,0.0971 0,-0.0971 z m 2.03832,-1.16476 -0.29119,0 -0.0971,0.0971 0.38825,-0.0971 z m 0.77651,-0.48531 0,0 -0.0971,0 0.0971,0 z m -8.15331,0.38825 0,-0.19412 -0.0971,0.19412 0.0971,0 z m 0.87357,-0.29119 -0.29119,0 0.29119,0.58238 0,-0.58238 z m -2.32951,0.0971 0,-0.58238 -0.48532,0.0971 0.48532,0.48532 z m -1.35889,-0.97064 0.48532,0.48532 0,-0.19413 -0.48532,-0.29119 z m 14.26828,0.58238 -1.74713,0.77651 0.58237,0.0971 1.16476,-0.87357 z m -13.58883,-0.87356 -0.58238,0 0,0.19412 0.58238,-0.19412 z m 15.33597,-4.85316 0.0971,-0.48532 0.0971,-1.26182 -0.19412,1.74714 z m 0.0971,-5.43554 -0.38825,-0.97063 -0.19413,0.38826 0.58238,0.58237 z m -22.42158,2.42658 -0.19413,0.29119 0.48532,0.0971 -0.29119,-0.38825 z m -1.8442,-0.87357 -0.87357,0.29119 0.67945,0.0971 0.19412,-0.38826 z m -1.94126,0.19413 0,-0.29119 -0.0971,0.0971 0.0971,0.19413 z m -2.03833,-0.0971 -0.58238,0.38825 0.77651,0.38825 -0.19413,-0.7765 z m 2.71777,0.0971 -0.0971,-0.29119 -0.48532,-0.0971 0.58238,0.38825 z m -12.71527,-9.51219 -0.58238,0.29119 1.16476,0.38826 -0.58238,-0.67945 z m -2.32951,-3.10602 -0.77651,-1.16475 0.29119,0.87357 0.48532,0.29118 z m 3.00895,1.94127 -1.35888,-3.10602 -0.97063,-0.29119 2.32951,3.39721 z m -3.88252,-3.88253 -0.29119,-0.7765 -0.19413,-0.48532 0.48532,1.26182 z m -8.05624,-10.774 -1.74714,-1.26182 0.67945,0.67944 1.06769,0.58238 z m 43.6784,-6.50323 -7.0856,-11.8417 -0.38826,0 7.47386,11.8417 z m -49.01687,-18.92731 -0.29119,-0.0971 0.29119,0.19412 0,-0.0971 z m -0.58238,-0.67944 -0.0971,0.0971 0.0971,0.0971 0,-0.19412 z m -0.67944,-0.97063 0,-0.0971 -0.0971,0.0971 0.0971,0 z m 0.38825,-0.38826 0.29119,0.19413 0,-0.19413 -0.29119,0 z m 0.58238,-0.38825 -0.38825,0.0971 0.0971,0 0.29119,-0.0971 z m -0.67944,-0.0971 -0.29119,-0.29119 0.0971,0.0971 0.19413,0.19413 z m -0.67944,-1.0677 -0.19413,0 0.29119,0.0971 -0.0971,-0.0971 z m 0.67944,-1.16475 -0.38826,0 -0.0971,0.0971 0.48532,-0.0971 z m 0.38825,0.19412 -0.48532,-0.48531 0.19413,0.0971 0.29119,0.38825 z m -3.6884,-4.17371 -0.19413,-0.0971 0,0.0971 0.19413,0 z m -4.17371,0 -0.29119,-0.38825 0.0971,0.48531 0.19413,-0.0971 z m -35.33098,-3.20309 2.91189,-2.23245 -3.20308,2.13539 0.29119,0.0971 z m 5.82379,-4.65902 0.29119,-0.29119 -1.16476,0.48531 0.87357,-0.19412 z m -36.88399,-6.50323 -10.57988,3.39721 5.82379,-1.65008 4.75609,-1.74713 z m 26.30411,-16.50073 -2.81483,0.48531 -41.93127,6.79442 4.36784,9.9975 0.29119,0.0971 -1.06769,3.97959 3.10602,-1.35888 3.3972,-3.00896 5.82379,-0.19412 6.69736,-2.42658 4.56196,0.67944 -1.06769,1.65007 8.34743,2.81483 7.18267,3.49428 1.65007,3.88252 5.33847,-1.16476 12.61821,-10.28869 4.65903,0.19413 19.02437,14.36534 3.88252,-0.77651 4.07666,5.43554 0.7765,8.63862 -1.26182,5.43553 0.58238,2.71777 3.39721,6.79442 -1.55301,-5.33847 4.36784,-0.0971 0.38825,3.88253 -2.32951,6.01791 8.05624,11.0652 3.00895,0.0971 -2.52364,-3.39721 3.10602,0.38825 1.8442,-1.16475 -0.7765,6.21204 4.17371,3.30014 2.81483,7.57093 3.78546,2.32951 4.85316,1.26182 6.69735,8.54156 3.49428,1.84419 -4.65903,0.29119 2.13538,2.42658 7.66799,-2.52364 3.78546,-2.13539 3.49427,-12.22995 -1.74713,-19.02437 -0.38825,-1.94127 -9.31806,-15.53009 -7.95918,-11.25933 -4.4649,-9.22099 3.78546,3.20308 0.7765,-0.58238 1.65008,8.05624 4.27077,6.11498 -4.17371,-8.1533 0.19413,-3.88253 -12.52115,-15.23891 -3.00895,-4.75609 -3.97959,-8.05624 -2.71777,-6.79442 -2.13539,-2.42658 -0.48531,-3.10602 -0.0971,-0.0971 -6.69735,-0.38825 -2.62071,2.03832 -1.45594,7.47386 -1.35889,-3.49427 -45.81379,5.72672 -3.30014,-5.14434 0.0971,-0.0971 z"
      style="stroke-width:0.97063118000000004;fill:#006064;stroke:#547876" />
   <path id="GA" data-name="Georgia" data-id="GA"
      d="m 845.85395,396.09691 -0.0971,-2.9119 -0.67944,2.52364 0.7765,0.38826 z m 1.0677,-4.46491 -0.38825,-2.23245 -0.29119,1.35889 0.67944,0.87356 z m -45.42554,-61.14976 -1.26182,0.29119 -3.6884,0.7765 -13.58884,2.81483 -1.26182,0.29119 -1.35888,0.19413 -7.57093,1.45595 -2.03832,0.38825 -8.25037,1.55301 -1.74713,0.19412 0.0971,0.19413 13.00646,39.60175 7.18267,12.81234 -1.74714,1.94126 -1.06769,7.57092 2.13539,3.88253 0.19412,7.0856 2.62071,4.95022 0,0.0971 -0.0971,0.0971 3.30014,5.14434 45.81379,-5.72672 1.35889,3.49427 1.45594,-7.47386 2.62071,-2.03832 6.69735,0.38825 0,0 -0.58237,-10.48282 1.26182,-2.23245 -0.67945,-4.17371 1.35889,-3.97959 2.03832,-2.23245 -1.45594,-1.35889 3.39721,-4.17371 -0.0971,0 -5.82378,-5.43554 -7.95918,-11.35638 -4.36784,-2.03833 -18.73318,-15.72422 -4.56197,-5.82379 -8.83274,-3.6884 -0.48532,-1.94126 2.71777,-5.33847 0,0 z"
      style="stroke-width:0.97063118000000004;fill:#006064;stroke:#547876" />
   <path id="MS" data-name="Mississippi" data-id="MS"
      d="m 716.76,442.78427 -0.48531,0.0971 0,0.0971 0.48531,-0.19412 z m 9.02687,-1.16476 -1.35888,0 1.26182,0.0971 0.0971,-0.0971 z m -11.25932,0.97063 -0.38825,0.38825 0.0971,0.0971 0.29119,-0.48532 z m 9.12394,-0.7765 -3.6884,0 3.49427,0.0971 0.19413,-0.0971 z m -40.47533,-92.50116 0,0.0971 -4.07665,6.79442 0.38826,5.2414 -5.5326,6.11498 1.45595,1.74714 -3.6884,15.5301 1.74713,3.30014 -0.97063,0.67944 0.0971,2.13539 0,0.67944 2.23246,5.24141 -0.19413,3.20309 3.59134,4.36784 -7.3768,12.6182 -1.16476,7.57092 -2.03832,3.00896 1.35888,3.49427 -1.26182,1.26182 33.48678,-3.68839 -1.16476,4.65903 4.27078,8.34742 2.23245,2.81483 0,-0.0971 3.59133,-4.07665 7.57093,-1.65007 6.98854,0.7765 1.06769,-1.35888 0,-0.0971 -4.95021,-29.89545 -0.19413,-21.8392 -0.58238,-39.79588 -1.35888,-0.87356 -0.38826,-0.77651 -0.19412,0 -4.85316,0.67944 -8.54155,1.16476 -19.41263,2.42658 -2.13539,0.19412 z"
      style="stroke-width:0.97063118000000004;fill:#006064;stroke:#547876" />
   <path id="SC" data-name="South Carolina" data-id="SC"
      d="m 801.49611,330.48224 0,0 -2.71777,5.33847 0.48532,1.94126 8.83274,3.6884 4.56197,5.82379 18.73318,15.72422 4.36784,2.03833 7.95918,11.35638 5.82378,5.43554 0,0 0.97063,-4.4649 -1.55301,-4.27078 4.17372,3.10602 2.32951,-1.8442 -3.97959,-3.30015 4.85316,-0.29119 7.57092,-6.40616 -0.87356,-1.65008 4.65903,-3.59133 -0.48532,-1.74714 3.39721,-2.13539 0.19413,-4.95022 5.33847,-9.90043 3.59133,-4.56197 0.38826,-0.19413 -21.64508,-13.6859 -8.05624,1.55301 -10.96813,-0.38825 -5.43554,-2.81483 -32.22495,10.19163 -0.29119,0 z"
      style="stroke-width:0.97063118000000004;fill:#006064;stroke:#547876" />
   <path id="IL" data-name="Illinois" data-id="IL"
      d="m 661.43403,198.18521 -0.19413,0.48531 3.6884,2.32952 1.16476,2.32951 3.88252,3.6884 -0.0971,3.10602 -2.13539,6.11498 -4.85316,3.49427 -4.36784,0.87357 -0.87357,5.04728 1.45595,0.67944 -1.45595,9.90044 -3.59133,2.23245 0.67944,3.78546 -0.87357,0.38825 0,0 -0.7765,4.27078 3.10602,8.63862 11.06519,9.31806 0.97063,4.4649 2.13539,2.23245 6.98855,-0.38825 -1.26182,6.50323 -0.48532,6.98855 4.17372,3.3972 6.60029,2.9119 3.49427,2.71777 1.94126,5.53259 -1.06769,2.03833 6.89148,5.62966 0.29119,0.0971 -0.58238,-0.58238 1.94126,-4.56196 7.47386,2.03832 1.8442,-2.13539 -1.45594,-4.27077 6.11497,-3.59134 -1.65007,-2.32951 1.45595,-3.30015 0,-0.29119 -0.38826,-0.0971 0.0971,-8.63862 2.13539,-1.55301 3.68839,-8.63862 -0.7765,-3.78546 -2.42658,-4.56196 1.35888,-5.14435 -6.79441,-47.85212 -0.97064,-1.06769 -2.52364,-5.72673 -2.03832,-2.13539 -0.87357,-5.62966 0,-0.19412 -13.10352,1.8442 -7.86211,0.97063 -21.15976,2.42658 0,0 z"
      style="stroke-width:0.97063118000000004;fill:#006064;stroke:#547876" />
   <path id="IN" data-name="Indiana" data-id="IN"
      d="m 750.34384,200.22353 -14.85065,2.62071 -3.39721,0.67944 -12.03583,1.94126 -2.52364,2.03833 -3.78546,1.74713 -1.45595,-0.0971 -1.74714,-0.87357 -0.58237,-0.58238 6.79441,47.85212 -1.35888,5.14435 2.42658,4.56196 0.7765,3.78546 -3.68839,8.63862 -2.13539,1.55301 -0.0971,8.63862 0.38826,0.0971 0.38825,-0.0971 1.45595,-2.71777 3.59133,0 4.36784,-1.45595 5.43554,2.03833 0.58237,-2.23245 3.10602,-2.32952 4.65903,0.67945 2.52365,-4.95022 6.89148,0.58237 -0.0971,-2.81483 6.11498,-8.05623 -0.97063,-3.6884 4.27078,-0.0971 5.2414,-4.17371 -1.26182,-4.75609 0.19413,-0.19413 -0.19413,-1.65007 -5.82378,-34.36035 -2.62071,-14.65653 -0.29119,-1.55301 -0.29119,-1.26182 z"
      style="stroke-width:0.97063118000000004;fill:#006064;stroke:#547876" />
   <path id="KY" data-name="Kentucky" data-id="KY"
      d="m 693.17367,317.18459 -0.29119,-0.7765 -0.58238,-0.19413 -0.38825,1.26182 0.0971,0.0971 1.06769,-0.0971 0.0971,-0.29119 z m 66.39117,-63.47928 -0.19413,0.19413 1.26182,4.75609 -5.2414,4.17371 -4.27078,0.0971 0.97063,3.6884 -6.11498,8.05623 0.0971,2.81483 -6.89148,-0.58237 -2.52365,4.95022 -4.65903,-0.67945 -3.10602,2.32952 -0.58237,2.23245 -5.43554,-2.03833 -4.36784,1.45595 -3.59133,0 -1.45595,2.71777 -0.38825,0.0971 0,0.29119 -1.45595,3.30015 1.65007,2.32951 -6.11497,3.59134 1.45594,4.27077 -1.8442,2.13539 -7.47386,-2.03832 -1.94126,4.56196 0.58238,0.58238 0.19413,0.38826 -0.87357,7.95917 -0.38826,0.19413 -2.52364,1.55301 -0.0971,0.29119 2.81483,-0.38826 19.60675,-2.6207 -0.97063,-3.88252 3.30015,-0.0971 39.50469,-5.24141 27.76005,-4.65903 0.38825,-0.29119 0.67944,-0.7765 7.27974,-3.88252 5.62966,-7.3768 0.7765,-2.52364 3.6884,-2.9119 4.65903,-5.92085 0.67944,-0.97063 -0.29119,-0.0971 -2.42657,0 -3.10602,-1.74714 -5.5326,-6.69735 -1.94126,-6.79442 0,-0.19413 -0.19413,-0.19412 -4.07665,-2.32952 -1.8442,-3.10602 -3.6884,3.59134 -2.32951,0.58238 -2.9119,-1.16476 -2.52364,1.94126 -5.24141,-2.32951 -1.35888,0.58237 -4.95022,-4.27077 -2.52364,-1.26182 -4.75609,0.58238 -0.77651,0.7765 z"
      style="stroke-width:0.97063118000000004;fill:#006064;stroke:#547876" />
   <path id="NC" data-name="North Carolina" data-id="NC"
      d="m 890.2118,332.22937 -1.06769,1.0677 0.19412,0.19413 0.87357,-1.26183 z m 0.7765,-5.62966 -0.48531,0.77651 0.19413,0.7765 0.29118,-1.55301 z m 5.82379,-9.02687 -1.45594,0.97063 -0.77651,1.16476 2.23245,-2.13539 z m 12.52114,-6.11497 -0.58237,-0.38826 -1.26182,-0.0971 1.84419,0.48532 z m -2.6207,-0.58238 -0.87357,0 -1.45594,0.7765 2.32951,-0.7765 z m 3.00896,1.06769 2.81483,-6.98854 -1.94126,2.91189 -0.87357,4.07665 z m 4.17371,-9.22099 1.26182,-1.8442 -0.67944,0 -0.58238,1.8442 z m 8.1533,-7.57093 -2.13539,-10.774 1.8442,5.62966 0.29119,5.14434 z m -11.8417,-24.55697 -0.19412,0.0971 -0.29119,0.0971 0,0 0.0971,0 5.33847,9.02687 4.17372,4.17371 -9.12394,-13.39471 0,0 z m -1.74713,0.58238 -0.77651,0.19413 0,0 0.19413,0.0971 1.65007,0 -0.19413,-0.58238 0,0 -0.29118,0.0971 -0.29119,0 0,0 0,0.19412 -0.19413,0.0971 -0.0971,-0.0971 0,0 z m -89.78339,22.13039 -0.48532,1.45595 0.0971,4.17371 -1.0677,-0.0971 -2.52364,5.14435 -2.81483,0.29119 -5.24141,5.14434 -2.32951,-0.87357 -3.00896,4.46491 -7.95917,7.18267 -3.88253,0.97063 -4.07665,3.78546 -0.19413,2.52364 -3.59133,1.94126 0.0971,4.27078 0,0.97063 1.26182,-0.29119 13.58884,-2.81483 3.6884,-0.7765 1.26182,-0.29119 0.29119,0 32.22495,-10.19163 5.43554,2.81483 10.96813,0.38825 8.05624,-1.55301 21.64508,13.6859 0.38825,-0.29119 9.9975,-4.07665 0.0971,-5.33847 3.59134,-6.50323 3.88252,-3.6884 8.05624,-5.33847 1.0677,-1.94126 2.13538,0.97063 0.97064,-6.40616 -1.16476,2.23245 -4.07665,1.35888 -3.88253,0.0971 4.7561,-3.49427 -1.45595,-1.55301 1.65007,-3.49427 -9.12393,-1.45595 -0.38825,-0.48531 7.76505,-1.45595 2.52364,1.26182 3.20308,-0.29119 2.6207,-1.94126 1.94127,-3.78546 1.74713,-0.48532 -0.29119,-5.33847 -2.23245,-2.13539 -2.23245,2.03833 0.48531,5.14434 -1.65007,-6.3091 -1.26182,-0.29119 -9.60925,3.97959 4.27078,-4.17372 0.19413,-1.65007 4.4649,-1.06769 1.26182,-3.30015 3.00896,1.74714 -3.20309,-4.7561 -2.23245,-1.94126 0,0 -38.82525,11.0652 -24.75109,6.3091 -25.04229,4.65903 -0.0971,-0.19413 z"
      style="stroke-width:0.97063118000000004;fill:#006064;stroke:#547876" />
   <path id="OH" data-name="Ohio" data-id="OH"
      d="m 818.19096,206.6297 -2.42657,-10.48282 -0.48532,-2.13539 -2.71777,-11.93876 -3.49427,2.23245 -7.47386,5.72672 -4.85315,5.92085 -3.78547,0.58238 -6.98854,3.97959 -3.88253,-2.32951 -11.74463,-1.35889 0,0 -6.21204,1.55301 -6.11498,1.45595 -6.40617,1.35888 -0.97063,0.29119 0.29119,1.55301 2.62071,14.65653 5.82378,34.36035 0.19413,1.65007 0.77651,-0.7765 4.75609,-0.58238 2.52364,1.26182 4.95022,4.27077 1.35888,-0.58237 5.24141,2.32951 2.52364,-1.94126 2.9119,1.16476 2.32951,-0.58238 3.6884,-3.59134 1.8442,3.10602 4.07665,2.32952 0.19413,0.19412 0,0 4.17371,-2.03832 1.45595,-3.20309 -1.16476,-3.30014 3.30014,-5.04728 2.42658,-0.38826 -0.29119,-4.27077 3.97959,-5.43554 0.67944,0.77651 3.59134,-2.71777 3.10602,-4.65903 0.48531,-21.25682 0.19413,-0.0971 -0.48532,-2.03832 z"
      style="stroke-width:0.97063118000000004;fill:#006064;stroke:#547876" />
   <path id="TN" data-name="Tennessee" data-id="TN"
      d="m 786.2572,300.48973 -27.76005,4.65903 -39.50469,5.24141 -3.30015,0.0971 0.97063,3.88252 -19.60675,2.6207 -2.81483,0.38826 0,0.0971 -0.7765,0.97063 -0.38826,-0.0971 0,-0.77651 0,-0.0971 -1.06769,0.0971 0.0971,0.0971 0.58238,2.71776 -1.94126,2.42658 -0.19413,4.46491 0,0.7765 0,0.0971 -2.91189,5.62966 0.58238,3.97959 -2.71777,4.27078 0.97063,3.88252 -3.49427,3.20309 0.19412,0.19412 2.13539,-0.19412 19.41263,-2.42658 8.54155,-1.16476 4.85316,-0.67944 0.19412,0 -0.0971,-0.19413 16.30661,-2.23245 7.76504,-0.97063 15.5301,-2.52364 2.9119,-0.48532 1.74713,-0.19412 8.25037,-1.55301 2.03832,-0.38825 7.57093,-1.45595 1.35888,-0.19413 0,-0.97063 -0.0971,-4.27078 3.59133,-1.94126 0.19413,-2.52364 4.07665,-3.78546 3.88253,-0.97063 7.95917,-7.18267 3.00896,-4.46491 2.32951,0.87357 5.24141,-5.14434 2.81483,-0.29119 2.52364,-5.14435 1.0677,0.0971 -0.0971,-4.17371 0.48532,-1.45595 -1.55301,0.29119 -5.5326,1.55301 -6.60029,1.35889 -16.59779,3.39721 -1.74714,0.29118 -0.38825,0.29119 z"
      style="stroke-width:0.97063118000000004;fill:#006064;stroke:#547876" />
   <path id="VA" data-name="Virginia" data-id="VA"
      d="m 908.75086,270.98255 0.29119,0 0.29118,-0.0971 0,0 -0.19412,-0.48531 -0.38825,0.58238 0,0 z m -3.30015,-10.87107 0,0.48531 0.48532,-0.29119 -0.48532,-0.19412 z m 1.74714,-3.39721 -0.0971,-0.77651 0,0 0.0971,0.77651 z m -0.58238,1.16475 -0.19413,1.26183 -0.29119,0.48531 0.48532,-1.74714 z m 0.87357,-2.52364 0.0971,-0.58238 -0.19413,0.58238 0.0971,0 z m 0.58237,-2.6207 0.29119,-0.67944 -0.48531,1.74713 0.19412,-1.06769 z m 0.0971,-1.45595 0.38825,-2.13539 -0.48532,0.48532 0.0971,1.65007 z m 1.74713,-9.60925 0.19413,-0.87356 -0.0971,0.19412 -0.0971,0.67944 z m -0.38825,-2.23245 -1.26182,0.48532 -1.94126,0.87357 -0.67944,0.87356 0.29119,0.0971 -2.32952,14.4624 0.87357,2.32952 1.35888,-6.01792 2.52364,-7.86211 1.16476,-5.14435 0,-0.0971 z m 1.94126,-0.7765 -0.29119,0.0971 -0.0971,0.38825 -0.48531,3.00896 0.38825,-1.0677 0.48531,-2.42657 z m -101.43096,37.17517 -0.67944,0.97063 -4.65903,5.92085 -3.6884,2.9119 -0.7765,2.52364 -5.62966,7.3768 -7.27974,3.88252 -0.67944,0.7765 1.74714,-0.29118 16.59779,-3.39721 6.60029,-1.35889 5.5326,-1.55301 1.55301,-0.29119 0.0971,0.19413 25.04229,-4.65903 24.75109,-6.3091 38.82525,-11.0652 0,0 -0.29119,-0.48531 -0.0971,-0.29119 0.67944,0.67944 0,0 0,0 0.77651,-0.19413 -0.0971,-0.0971 -0.67944,-3.30015 0.48532,0.0971 1.55301,2.91189 0,0 0,0 0.29119,-0.0971 0.19412,-0.0971 -0.38825,-0.7765 -3.97959,-6.11498 -4.95022,0.87357 -2.23245,1.8442 -2.13539,-1.94126 -7.27973,-2.42658 -5.04728,-0.19413 9.80337,-0.87357 5.43554,3.6884 1.55301,-2.42658 -4.36784,-5.53259 3.10602,0.19412 -1.65008,-4.4649 -3.88252,0.19413 -9.221,-7.47386 -1.16476,0 13.00646,6.40616 -0.87357,-4.4649 0.87357,-1.45595 -6.60029,-2.52364 -5.72672,-0.38825 -2.81483,-2.52364 -2.32952,1.45594 -0.87357,-6.69735 0.97063,0.19412 -0.19412,-5.43553 -0.19413,-0.19413 -0.19413,0.0971 -0.19412,-0.0971 -0.48532,-0.38825 -0.29119,-0.29119 -3.10602,-1.35888 -3.20308,-2.32952 -4.4649,-1.16475 -0.29119,-0.0971 0,0.0971 -0.58238,4.07665 -9.02687,-3.88253 0.19413,5.62966 -4.95022,9.41513 -3.00896,3.30014 -1.94126,5.72673 -5.92085,-2.03833 -2.9119,13.20058 -2.32951,4.46491 -0.38825,5.82379 -1.74714,2.81483 -6.50323,1.94126 -5.33847,4.17371 -2.52364,0.38825 -2.42658,2.13539 -6.11498,-2.23245 -1.06769,-3.00896 -0.19413,-0.0971 z"
      style="stroke-width:0.97063118000000004;fill:#006064;stroke:#547876" />
   <path id="WI" data-name="Wisconsin" data-id="WI"
      d="m 705.79187,134.80299 -2.42658,3.00896 -1.45594,4.36784 0.67944,2.42657 3.20308,-9.80337 z m -55.71423,-22.80983 1.45595,-2.03833 -1.0677,0.97063 -0.38825,1.0677 z m 2.23245,-3.20309 -0.48531,-0.58238 -1.0677,0.67945 1.55301,-0.0971 z m -21.15976,5.43554 -2.23245,2.52364 1.0677,11.64757 -6.21204,5.62966 -1.16476,5.43554 3.39721,3.10602 -0.97063,13.39471 3.59133,2.71777 2.32952,0.19412 7.37679,4.46491 4.65903,4.85315 5.92085,3.00896 1.35889,7.47386 0,0.48531 0,0 2.81483,3.39721 -0.77651,2.62071 0.97063,5.72672 2.9119,3.97959 5.33847,2.81483 -0.0971,0.48532 0,0 21.15976,-2.42658 7.86211,-0.97063 13.10352,-1.8442 -0.38825,-1.45595 0,-4.56197 -2.62071,-4.85315 -0.67944,-6.11498 1.26182,-6.79442 -0.67944,-5.24141 2.32952,-6.50322 -0.87357,-1.0677 0.19412,-6.01791 1.26182,-4.56197 -1.45594,-1.55301 -2.81483,0.97063 -1.55301,4.07665 -3.6884,2.13539 1.16476,-5.14434 3.30014,-4.36784 0.19413,-1.94127 0.0971,-0.0971 -4.65903,-4.65903 0,-6.60029 -5.24141,-4.27078 -7.18267,-0.48531 -7.3768,-1.94127 -15.91835,-4.85315 -3.10602,-1.74714 -0.29119,0.29119 -4.95022,-0.67944 -1.65007,0.97063 0.67944,-7.08561 -7.95917,4.07665 -9.70631,1.55301 -0.0971,-0.19412 z m 19.02437,-5.14435 -0.19412,-0.67944 -0.67944,0.29119 0.87356,0.38825 z m -3.49427,-0.67944 0.29119,-0.58238 -0.19413,-0.19413 -0.0971,0.77651 z m 7.08561,-1.65007 -0.29119,-1.35889 -0.29119,1.65008 0.58238,-0.29119 z"
      style="stroke-width:0.97063118000000004;fill:#006064;stroke:#547876" />
   <path id="WV" data-name="West Virginia" data-id="WV"
      d="m 836.73002,223.71281 -13.78296,3.39721 -4.27078,-18.442 0,0 -0.19413,0.0971 -0.48531,21.25682 -3.10602,4.65903 -3.59134,2.71777 -0.67944,-0.77651 -3.97959,5.43554 0.29119,4.27077 -2.42658,0.38826 -3.30014,5.04728 1.16476,3.30014 -1.45595,3.20309 -4.17371,2.03832 0,0 0,0.19413 1.94126,6.79442 5.5326,6.69735 3.10602,1.74714 2.42657,0 0.29119,0.0971 0.19413,0.0971 1.06769,3.00896 6.11498,2.23245 2.42658,-2.13539 2.52364,-0.38825 5.33847,-4.17371 6.50323,-1.94126 1.74714,-2.81483 0.38825,-5.82379 2.32951,-4.46491 2.9119,-13.20058 5.92085,2.03833 1.94126,-5.72673 3.00896,-3.30014 4.95022,-9.41513 -0.19413,-5.62966 9.02687,3.88253 0.58238,-4.07665 0,-0.0971 0,0 -2.81483,-4.85315 -5.82379,-0.67945 -3.39721,2.62071 0,1.94126 -2.91189,0.67944 -4.27078,3.00896 -2.23245,0.48532 -4.46491,6.3091 -2.23245,-10.19163 -1.94126,0.48532 z"
      style="stroke-width:0.97063118000000004;fill:#006064;stroke:#547876" />
   <path id="DE" data-name="Delaware" data-id="DE"
      d="m 893.80314,207.69739 0.38825,1.45595 8.05624,23.00396 9.22099,-2.71777 -0.0971,-0.19413 0.19413,0 0.29119,0.0971 0,0 0.19412,-0.0971 -0.19412,-0.38825 -2.32952,-6.21204 -11.35638,-10.774 0.48531,-7.47386 0,0 -2.32951,0 -1.74714,1.35888 -0.7765,1.94126 0,0 z"
      style="stroke-width:0.97063118000000004;fill:#006064;stroke:#547876" />
   <path id="DC" data-name="District of Columbia" data-id="DC"
      d="m 878.17597,229.14834 0.48532,0.38825 0.19412,0.0971 0.19413,-0.0971 0.19413,0.0971 0.67944,0.38825 0.19413,0.29119 0,0.67944 0.19412,0.38825 1.26182,-2.32951 -1.35888,-0.77651 -1.65007,0.0971 -0.38826,0.7765 z"
      style="stroke-width:0.97063118000000004;fill:#006064;stroke:#547876" />
   <path id="MD" data-name="Maryland" data-id="MD"
      d="m 911.56569,238.27227 0.67944,-5.2414 -0.58238,3.88252 -0.38825,1.65007 -0.0971,0.19413 0.29119,-0.0971 0.0971,-0.38826 z m 0.48531,-9.02687 -0.19412,0.0971 0.19412,0.58238 0,1.16475 0,-1.8442 0,0 z m -73.37972,-6.01791 2.23245,10.19163 4.46491,-6.3091 2.23245,-0.48532 4.27078,-3.00896 2.91189,-0.67944 0,-1.94126 3.39721,-2.62071 5.82379,0.67945 2.81483,4.85315 0,0 0.29119,0.0971 4.4649,1.16475 3.20308,2.32952 3.10602,1.35888 0.29119,0.29119 0.38826,-0.7765 1.65007,-0.0971 1.35888,0.77651 -1.26182,2.32951 0,0.0971 -1.8442,5.62966 6.01792,3.88252 6.01791,0.29119 3.97959,1.8442 -1.65008,-4.65903 -5.14434,-1.74714 -1.26182,-3.97958 3.20308,4.27077 2.62071,0.38826 -2.32952,-2.32952 -1.8442,-6.89148 0.48532,-3.97959 -2.03833,-4.36784 2.13539,-1.74713 1.55301,-5.62967 -0.58238,8.34743 1.65007,2.81483 1.55301,-3.30014 0.87357,5.43553 -1.65007,3.97959 4.75609,1.74714 -4.07665,1.35888 2.13539,3.97959 3.49427,1.16475 1.94126,-3.3972 -0.19412,4.75609 3.30014,-0.0971 2.13539,2.42657 0.0971,0 0.67944,-0.87356 1.94126,-0.87357 1.26182,-0.48532 -0.0971,-0.19412 2.52364,-7.47386 0,-0.29119 -0.48532,-1.94127 0,-0.0971 -9.22099,2.71777 -8.05624,-23.00396 -0.38825,-1.45595 -1.65008,0.48532 -6.89148,2.13539 -37.95168,10.57988 -6.89148,1.8442 -1.74714,0.48531 z"
      style="stroke-width:0.97063118000000004;fill:#006064;stroke:#547876" />
   <path id="NJ" data-name="New Jersey" data-id="NJ"
      d="m 916.80709,207.30914 -0.48531,-1.16476 0,1.16476 0.48531,0 z m 0.97064,-3.59134 0.29119,-2.91189 -0.58238,2.52364 0.29119,0.38825 z m -3.97959,-29.79837 -10.19163,-2.52365 -1.74714,-0.48531 -1.65007,-0.38825 0,0 -4.07665,9.02687 1.74714,2.13539 -0.0971,6.50322 1.8442,0.29119 3.78546,9.90044 -0.19412,0.29119 -4.75609,6.98855 0.48531,5.33847 11.45345,3.88252 0.0971,4.46491 2.62071,-3.6884 0.38825,-5.33847 2.71777,-1.8442 -1.0677,-3.97959 2.03833,-4.75609 0,-10.38576 -0.67944,-3.39721 -4.56197,0.0971 1.16476,-4.65903 0.67944,-7.47386 0,0 z"
      style="stroke-width:0.97063118000000004;fill:#006064;stroke:#547876" />
   <path id="NY" data-name="New York" data-id="NY"
      d="m 913.50695,181.78154 -1.45595,2.03832 -0.38825,0.58238 1.8442,-2.6207 z m 13.39471,-4.75609 4.85316,-4.27078 0,-0.19413 -4.85316,4.46491 z m -12.71527,3.00895 0,-3.30014 -0.29119,1.74713 0.29119,1.55301 z m 22.51864,-15.5301 -1.16475,-0.29119 -0.19413,0.87357 1.35888,-0.58238 z m 2.62071,-1.74713 -0.0971,0.97063 0.19412,-0.58238 -0.0971,-0.38825 z m -2.71777,0.0971 -6.50323,6.01791 -9.9975,4.27078 -2.6207,2.23245 -0.19413,2.13539 -2.71777,2.23245 0.38826,2.9119 4.17371,-1.65008 6.11498,-4.95022 6.79441,-3.59133 10.2887,-9.70631 -7.27974,5.53259 -2.32951,0.97064 3.88252,-6.40617 z m 3.00896,-4.07665 0.38825,-0.58238 -1.16476,1.35888 0.77651,-0.7765 z m -109.09895,-3.59134 -1.55301,-0.19412 1.16476,1.55301 0.38825,-1.35889 z m 32.22496,-29.70131 0.19412,-1.0677 -0.7765,0.97064 0.58238,0.0971 z m 0.48531,-6.98855 -0.38825,0.19413 -0.48532,1.06769 0.87357,-1.26182 z m -41.0577,55.13186 0.67944,2.91189 5.14435,1.26182 29.50719,-8.05624 29.70131,-8.92981 5.43554,4.17372 1.06769,2.42658 6.3091,2.71776 0.19413,0.38826 1.65007,0.38825 1.74714,0.48531 10.19163,2.52365 -0.19413,-0.48532 0.87357,3.97959 1.94126,-0.48532 1.0677,-4.36784 0,-0.0971 -1.74714,-1.65007 2.52364,-3.10602 -1.16476,-1.45595 -3.68839,-14.26828 -0.19413,-0.97063 -0.48532,-0.29119 -0.29119,-4.27078 -0.29119,-4.65903 -0.29118,-5.04728 0,-0.29119 -0.19413,0.0971 -4.85316,-15.91835 -5.14434,-8.05624 -1.45595,-9.60924 -4.36784,-10.191633 -0.58238,0.29119 -20.28619,6.794418 -4.07665,4.367845 -4.56197,8.73568 0.19413,1.94126 -6.01791,9.12393 3.68839,1.26182 1.0677,6.89148 -4.27078,5.62967 -12.81233,7.76504 -2.42658,-0.97063 -9.51218,1.35889 -8.83275,5.33847 0.48532,2.81483 3.10602,2.71777 -1.74714,8.54155 -6.98854,8.1533 -0.0971,0.0971 z"
      style="stroke-width:0.97063118000000004;fill:#006064;stroke:#547876" />
   <path id="PA" data-name="Pennsylvania" data-id="PA"
      d="m 900.01517,170.13396 -6.3091,-2.71776 -1.06769,-2.42658 -5.43554,-4.17372 -29.70131,8.92981 -29.50719,8.05624 -5.14435,-1.26182 -0.67944,-2.91189 -1.65007,1.26182 -2.6207,1.8442 -4.7561,4.85315 -0.58238,0.48532 2.71777,11.93876 0.48532,2.13539 2.42657,10.48282 0.48532,2.03832 0,0 4.27078,18.442 13.78296,-3.39721 1.94126,-0.48532 1.74714,-0.48531 6.89148,-1.8442 37.95168,-10.57988 6.89148,-2.13539 1.65008,-0.48532 0,0 0.7765,-1.94126 1.74714,-1.35888 2.32951,0 0.29119,-0.87357 3.78546,-4.27078 0.38825,-0.67944 0.29119,-0.19413 -3.78546,-9.90044 -1.8442,-0.29119 0.0971,-6.50322 -1.74714,-2.13539 4.07665,-9.02687 0,0 -0.19413,-0.38826 z"
      style="stroke-width:0.97063118000000004;fill:#006064;stroke:#547876" />
   <path id="ME" data-name="Maine" data-id="ME"
      d="m 946.7996,118.39932 -0.0971,0 0.19412,0.0971 -0.0971,-0.0971 z m 7.18267,-20.674443 -0.77651,-1.164758 0,0.582379 0.77651,0.582379 z m -1.35888,-1.067695 0,-0.970631 -0.0971,-0.582379 0.0971,1.55301 z m 3.49427,-4.076651 -0.19413,-0.09706 0.0971,0.291189 0.0971,-0.194126 z m 9.70631,-4.853156 -0.19413,-1.455947 -0.38825,0.679442 0.58238,0.776505 z m -2.42658,0.582379 0.0971,-1.067694 -1.16476,0.194126 1.06769,0.873568 z m 3.59134,-3.203083 -0.38825,0 0,0.194126 0.38825,-0.194126 z m -4.85316,1.455947 -0.87357,-0.194126 -0.0971,0.873568 0.97063,-0.679442 z m 4.95022,-3.008957 0.87357,0.679442 -0.29119,-0.776505 -0.58238,0.09706 z m -2.6207,0.09706 -0.87357,1.650073 1.16476,-0.582379 -0.29119,-1.067694 z m -4.17372,0.09706 -0.38825,0.582379 0.29119,0.873568 0.0971,-1.455947 z m 5.72673,-3.203083 -0.0971,-0.776505 -0.29119,0.485316 0.38826,0.291189 z m -0.48532,0.388253 -0.87357,-0.776505 0,0.679442 0.87357,0.09706 z m -5.43553,2.232452 -0.19413,-1.067695 -0.38825,0.873568 0.58238,0.194127 z m 9.22099,-3.39721 -1.45594,2.135389 -0.0971,-1.55301 1.55301,-0.582379 z m 7.08561,-6.503229 -0.67944,-0.970631 -0.38825,0.194126 1.06769,0.776505 z m 2.6207,-4.36784 -0.58237,-0.291189 -0.0971,0.291189 0.67944,0 z m 1.26183,-7.570923 -0.87357,0 0.97063,0.291189 -0.0971,-0.291189 z m 1.45594,0.970631 -0.29119,-1.747136 -0.7765,-0.09706 1.06769,1.8442 z m -1.55301,-1.55301 -0.19412,-1.844199 -0.67945,1.26182 0.87357,0.582379 z m -56.29661,15.23891 14.07415,33.001458 0.19413,0.67944 6.11498,7.47386 0,-0.0971 0.97063,-0.29119 0.19413,-5.5326 1.55301,-1.94126 0.97063,-5.14435 -0.87357,-0.87357 1.65007,-5.047274 5.62966,-2.620704 3.6884,-4.464904 1.35888,-7.765049 5.92085,-0.388253 -0.7765,-3.979588 7.3768,-2.81483 0.48531,-4.36784 1.74714,0.388252 4.85315,-3.979588 2.13539,-5.144345 -4.95022,-4.950219 -5.2414,-1.067695 -1.94127,-3.979588 0,-2.329515 -3.20308,0.970632 -3.59134,-1.261821 0,-3.979588 -9.70631,-20.965634 -7.0856,-3.688398 -7.86212,6.600292 -2.13539,-0.388253 -1.8442,-3.397209 -2.52364,0.970631 -3.59133,17.859614 1.26182,5.823788 1.06769,11.8417 -2.81483,9.123934 1.94126,1.455946 -2.32951,4.464904 -2.52364,-0.388253 -0.19413,0.194127 z"
      style="stroke-width:0.97063118000000004;fill:#006064;stroke:#547876" />
   <path id="MI" data-name="Michigan" data-id="MI"
      d="m 719.96309,138.2002 -0.48532,-0.77651 -0.0971,0.97063 0.58238,-0.19412 z m 1.55301,-1.74714 -1.16476,-1.55301 -0.19413,0.67944 1.35889,0.87357 z m 0.97063,-6.98854 -0.97063,-0.87357 0,0.19412 0.97063,0.67945 z m -2.42658,76.00042 12.03583,-1.94126 3.39721,-0.67944 14.85065,-2.62071 0.29119,1.26182 0.97063,-0.29119 6.40617,-1.35888 6.11498,-1.45595 6.21204,-1.55301 -0.0971,-0.29119 3.20309,-6.3091 -0.29119,-5.24141 3.59133,-9.02687 2.81483,1.65007 1.0677,-2.03832 -0.29119,-7.76505 -2.62071,-4.85316 -3.88252,-10.28869 -3.39721,-3.78546 -1.74714,-0.48531 -6.3091,4.36784 0.67944,0.87356 -3.30014,6.21204 -3.20309,-0.58238 -0.97063,-6.50322 1.35889,-0.48532 2.81483,-6.50323 0.29119,-11.45345 -4.36784,-9.70631 -9.70632,-1.65007 -0.97063,-1.45595 -9.02687,-2.6207 -4.07665,5.04728 0.38825,4.36784 -3.10602,3.88252 0.67945,6.01792 -3.00896,2.13539 0,-7.57093 -2.71777,5.72673 -3.20308,5.04728 -2.13539,1.65007 1.06769,5.33847 -1.35888,5.5326 0.77651,6.89148 -0.97064,3.39721 6.98855,13.39471 0.87357,5.14435 -0.87357,9.51218 -4.65903,10.67695 -0.58238,0.38825 z m 20.77151,-87.45387 -2.52364,0.19412 1.55301,1.16476 0.97063,-1.35888 z m -14.7536,2.52364 -0.7765,0 0.87357,0.38825 -0.0971,-0.38825 z m 16.98605,-12.32702 -0.97063,-1.55301 -0.38825,0.0971 1.35888,1.45594 z m -87.93919,7.08561 3.10602,1.74714 15.91835,4.85315 7.3768,1.94127 7.18267,0.48531 5.24141,4.27078 0,6.60029 4.65903,4.65903 0,-0.0971 3.78546,-10.96814 4.56197,-3.20308 3.49427,-3.88252 0.58238,3.49427 3.59134,-5.5326 8.63861,-3.30014 0.67945,-1.35889 8.73568,1.0677 3.39721,1.74713 1.65007,-4.27077 1.55301,0.97063 6.79442,-1.0677 -1.65008,-2.71777 -3.00895,-1.74713 0.58238,-6.3091 -5.92085,3.30014 -5.43554,-0.67944 -1.74714,-4.17371 0.58238,-1.358888 -7.37679,3.494268 -4.7561,0.29119 -8.54155,5.24141 -0.97063,1.94126 -5.24141,-1.26182 -3.30015,1.45595 -6.60029,-5.72672 -14.65653,-4.46491 -0.29119,-1.747133 -9.41512,9.026873 -5.33847,1.35888 -7.57093,5.72673 -0.29119,0.19412 z m 34.36035,-22.033327 -11.35639,5.629661 3.78546,3.688396 1.45595,-3.688396 3.88253,-4.756093 2.23245,-0.873568 z M 676.77,79.962326 l -7.76505,5.338471 -0.38825,2.620704 6.11497,-4.464903 2.03833,-3.494272 z"
      style="stroke-width:0.97063118000000004;fill:#006064;stroke:#547876" />
   <path id="AK" data-name="Alaska" data-id="AK"
      d="M 152.005 530.273 L 151.519 530.468 L 151.908 530.565 L 152.005 530.273 Z M 155.596 530.856 L 155.596 530.953 L 155.596 530.856 Z M 153.849 529.206 L 153.849 529.497 L 154.043 529.4 L 153.849 529.206 Z M 152.975 528.72 L 152.975 528.623 L 152.975 528.72 Z M 154.82 529.691 L 154.82 529.497 L 154.722 529.594 L 154.82 529.691 Z M 154.625 529.497 L 154.625 529.4 L 154.431 529.4 L 154.625 529.497 Z M 154.625 528.332 L 154.723 527.75 L 154.334 527.944 L 154.625 528.332 Z M 165.691 533.088 L 165.594 532.991 L 165.788 533.379 L 165.691 533.088 Z M 158.508 529.691 L 157.44 528.72 L 157.44 531.05 L 158.508 529.691 Z M 160.935 531.826 L 160.837 531.147 L 159.187 531.05 L 160.935 531.826 Z M 166.758 533.185 L 166.661 533.379 L 166.855 533.379 L 166.758 533.185 Z M 167.147 533.282 L 166.952 533.282 L 167.341 533.379 L 167.147 533.282 Z M 168.311 533.671 L 168.214 533.671 L 168.117 533.671 L 168.311 533.671 Z M 166.176 532.312 L 165.399 532.215 L 165.691 532.506 L 166.176 532.312 Z M 168.603 532.506 L 168.408 532.409 L 168.408 532.506 L 168.603 532.506 Z M 174.523 533.671 L 170.738 533.962 L 169.864 534.35 L 174.523 533.671 Z M 186.268 538.136 L 186.268 537.747 L 186.074 537.747 L 186.268 538.136 Z M 191.315 538.233 L 191.509 538.039 L 191.315 537.844 L 191.315 538.233 Z M 195.101 539.3 L 195.295 539.203 L 195.198 539.203 L 195.101 539.3 Z M 191.995 537.553 L 191.898 537.165 L 191.704 537.165 L 191.995 537.553 Z M 198.498 539.009 L 198.401 539.106 L 198.498 539.106 L 198.498 539.009 Z M 193.354 537.553 L 193.548 536.971 L 193.451 536.971 L 193.354 537.553 Z M 209.757 536.097 L 209.854 535.903 L 209.66 535.806 L 209.757 536.097 Z M 207.331 535.224 L 203.934 538.233 L 206.36 538.039 L 209.175 535.806 L 207.331 535.224 Z M 213.446 536.291 L 212.766 536.097 L 213.252 536.486 L 213.446 536.291 Z M 214.805 536.388 L 213.737 536.097 L 213.543 536.194 L 214.805 536.389 L 214.805 536.388 Z M 211.116 535.03 L 210.049 535.03 L 211.893 535.515 L 211.116 535.03 Z M 215.581 536 L 215.484 535.806 L 215.096 535.903 L 215.581 536 Z M 212.669 534.835 L 212.281 534.641 L 212.281 535.709 L 212.669 534.835 Z M 225.093 537.262 L 224.996 537.165 L 224.802 537.165 L 225.093 537.262 Z M 225.287 537.165 L 225.287 537.068 L 225.093 536.971 L 225.287 537.165 Z M 223.637 536.583 L 223.831 536.971 L 223.831 536.874 L 223.637 536.583 Z M 224.511 536.583 L 223.637 536.291 L 224.705 537.068 L 224.511 536.583 Z M 225.773 535.612 L 225.773 535.709 L 225.773 535.612 Z M 237.323 537.068 L 237.129 536.68 L 237.032 536.68 L 237.323 537.068 Z M 341.763 530.565 L 341.569 530.371 L 341.666 530.565 L 341.763 530.565 Z M 224.123 533.574 L 224.123 533.477 L 224.026 533.574 L 224.123 533.574 Z M 344.578 528.818 L 344.869 529.206 L 345.063 529.206 L 344.578 528.818 Z M 238.488 536.097 L 238.391 536.194 L 238.391 536.486 L 238.488 536.097 Z M 226.452 534.35 L 226.646 533.574 L 226.549 533.574 L 226.452 534.35 Z M 350.208 526.585 L 349.334 527.07 L 350.111 527.459 L 350.208 526.585 Z M 228.199 533.865 L 228.102 533.671 L 228.199 533.865 Z M 220.92 531.729 L 218.493 532.215 L 216.358 535.03 L 220.92 531.729 Z M 238.294 535.418 L 237.712 535.903 L 238.294 535.806 L 238.294 535.418 Z M 350.208 526.1 L 350.014 525.712 L 349.916 525.906 L 350.208 526.1 Z M 228.976 532.894 L 228.296 532.797 L 228.976 533.477 L 228.976 532.894 Z M 343.801 527.362 L 343.607 527.556 L 343.801 528.235 L 343.801 527.362 Z M 230.529 532.797 L 230.238 532.894 L 230.626 533.185 L 230.529 532.797 Z M 237.712 534.835 L 237.42 534.835 L 237.226 534.641 L 237.712 534.835 Z M 229.752 532.797 L 229.267 532.506 L 229.461 532.797 L 229.752 532.797 Z M 236.256 533.865 L 235.382 534.156 L 234.8 535.709 L 236.256 533.865 Z M 341.666 527.07 L 341.666 527.75 L 342.054 527.265 L 341.666 527.07 Z M 224.802 530.759 L 225.579 530.565 L 225.482 530.565 L 224.802 530.759 Z M 223.831 530.176 L 223.637 529.982 L 223.637 530.079 L 223.831 530.176 Z M 341.666 526.391 L 341.472 526.294 L 341.375 526.585 L 341.666 526.391 Z M 235.188 532.215 L 234.994 532.118 L 234.8 532.409 L 235.188 532.215 Z M 340.695 526.585 L 340.793 526.1 L 340.598 526.003 L 340.696 526.585 L 340.695 526.585 Z M 339.919 526.1 L 339.628 526.488 L 340.113 526.585 L 339.919 526.1 Z M 239.265 530.856 L 239.07 530.662 L 238.973 530.662 L 239.264 530.856 L 239.265 530.856 Z M 339.628 524.353 L 340.404 524.644 L 340.695 524.256 L 339.628 524.353 Z M 340.793 523.673 L 340.501 523.867 L 340.987 524.159 L 340.793 523.673 Z M 338.56 524.256 L 338.366 523.867 L 338.172 524.061 L 338.56 524.256 Z M 348.266 520.664 L 347.005 524.256 L 348.266 523.479 L 348.266 520.664 Z M 233.247 528.138 L 233.149 528.138 L 233.247 528.138 Z M 339.725 522.023 L 338.851 522.897 L 339.045 523.867 L 339.725 522.023 Z M 249.359 529.788 L 249.359 529.4 L 249.262 529.594 L 249.359 529.788 Z M 338.657 521.052 L 341.472 525.323 L 347.781 529.303 L 346.325 525.906 L 340.307 520.761 L 338.657 521.052 Z M 245.477 528.235 L 245.379 527.944 L 245.185 528.041 L 245.477 528.235 Z M 341.957 519.402 L 341.569 520.858 L 342.248 520.373 L 341.957 519.402 Z M 343.996 519.402 L 343.899 520.373 L 344.772 520.664 L 343.996 519.402 Z M 248.583 526.973 L 248.097 526.876 L 247.612 527.07 L 248.583 526.973 Z M 258.58 527.75 L 258.192 528.429 L 258.386 527.847 L 258.58 527.75 Z M 260.036 527.847 L 259.162 527.944 L 259.648 528.526 L 260.036 527.847 Z M 201.216 515.423 L 202.186 515.908 L 201.992 515.714 L 201.216 515.423 Z M 239.75 525.032 L 239.847 524.935 L 239.75 525.032 Z M 240.041 524.935 L 240.138 524.935 L 240.138 524.838 L 240.041 524.935 Z M 340.404 517.461 L 340.89 519.305 L 341.86 518.723 L 340.404 517.461 Z M 242.662 523.867 L 242.759 523.77 L 242.662 523.867 Z M 336.231 518.238 L 336.716 522.703 L 337.687 521.732 L 336.231 518.238 Z M 336.716 516.782 L 338.948 519.888 L 338.657 517.849 L 336.716 516.782 Z M 329.824 517.558 L 329.242 519.402 L 330.019 518.141 L 329.824 517.558 Z M 252.174 522.314 L 252.077 522.217 L 252.174 522.314 Z M 261.395 522.508 L 261.201 522.217 L 261.395 522.605 L 261.395 522.508 Z M 330.019 516.102 L 333.901 522.508 L 333.319 518.141 L 330.019 516.102 Z M 266.83 519.499 L 266.539 519.791 L 267.025 519.985 L 266.83 519.499 Z M 265.569 519.694 L 265.666 519.402 L 265.277 519.402 L 265.569 519.694 Z M 264.598 519.694 L 262.074 521.344 L 258.968 525.42 L 260.521 527.07 L 267.704 521.732 L 264.598 519.694 Z M 325.845 513.385 L 325.165 512.996 L 325.165 513.579 L 325.845 513.385 Z M 264.016 518.529 L 264.113 518.917 L 264.792 519.305 L 264.016 518.529 Z M 327.689 511.54 L 325.748 512.511 L 327.592 513.093 L 327.689 511.54 Z M 326.427 511.54 L 326.233 511.346 L 326.136 511.54 L 326.427 511.54 Z M 332.348 509.987 L 331.572 509.696 L 331.377 510.278 L 332.348 509.987 Z M 328.174 510.667 L 327.495 510.57 L 327.495 510.764 L 328.174 510.667 Z M 330.31 509.89 L 334.289 515.714 L 333.222 510.376 L 330.31 509.89 Z M 266.248 516.199 L 263.919 517.946 L 264.986 519.111 L 268.092 516.782 L 266.248 516.199 Z M 239.847 512.511 L 239.75 512.414 L 239.75 512.511 L 239.847 512.511 Z M 238.779 512.026 L 238.682 511.54 L 238.682 511.734 L 238.779 512.026 Z M 268.578 513.287 L 268.383 513.385 L 268.383 513.482 L 268.578 513.288 L 268.578 513.287 Z M 267.607 513.093 L 267.51 513.093 L 267.316 513.385 L 267.607 513.093 Z M 269.936 512.317 L 269.645 512.123 L 269.645 512.22 L 269.936 512.317 Z M 270.713 512.22 L 270.422 512.026 L 270.422 512.123 L 270.713 512.22 Z M 269.451 511.929 L 269.063 511.929 L 269.063 512.026 L 269.451 511.929 Z M 288.767 509.987 L 288.864 509.696 L 288.67 509.89 L 288.767 509.987 Z M 294.688 506.881 L 295.852 505.425 L 295.464 505.716 L 294.688 506.881 Z M 282.846 506.687 L 283.234 506.396 L 283.331 506.008 L 282.846 506.687 Z M 282.846 505.619 L 282.458 505.911 L 283.137 505.716 L 282.846 505.619 Z M 266.927 505.619 L 266.83 505.231 L 266.733 505.231 L 266.927 505.619 Z M 282.458 505.522 L 282.069 505.911 L 281.875 506.299 L 282.458 505.522 Z M 293.135 504.358 L 293.232 504.358 L 293.329 504.358 L 293.135 504.358 Z M 293.62 504.358 L 293.426 504.26 L 293.426 504.358 L 293.62 504.358 Z M 292.455 504.26 L 292.552 504.358 L 292.552 504.26 L 292.455 504.26 Z M 284.496 504.843 L 284.884 504.455 L 284.399 504.843 L 284.496 504.843 Z M 290.417 503.678 Z M 285.661 503.969 L 283.331 507.755 L 286.34 504.26 L 285.661 503.969 Z M 282.652 504.455 L 282.361 504.066 L 282.263 504.26 L 282.652 504.455 Z M 290.029 503.581 L 289.834 503.484 L 289.931 503.581 L 290.029 503.581 Z M 292.552 503.775 L 292.552 503.096 L 292.358 503.387 L 292.552 503.775 Z M 221.308 496.301 L 216.649 496.107 L 219.852 499.504 L 221.308 496.301 Z M 287.602 503.193 L 287.796 503.872 L 288.281 503.096 L 287.602 503.193 Z M 283.719 503.096 L 283.428 505.231 L 283.914 503.872 L 283.719 503.096 Z M 199.469 486.983 L 199.566 486.595 L 199.469 486.983 Z M 282.749 501.737 L 282.846 502.028 L 283.04 501.931 L 282.749 501.737 Z M 282.263 502.125 L 282.069 501.543 L 281.778 501.737 L 282.263 502.125 Z M 286.825 500.96 L 286.825 500.572 L 286.534 500.766 L 286.825 500.96 Z M 282.458 500.378 L 282.458 501.349 L 282.749 500.669 L 282.458 500.378 Z M 275.081 499.213 L 275.081 498.922 L 275.081 499.213 Z M 224.414 487.177 L 224.608 486.595 L 224.511 486.692 L 224.414 487.177 Z M 224.705 486.207 L 224.608 486.11 L 224.511 486.207 L 224.705 486.207 Z M 228.976 483.877 L 228.976 483.78 L 228.976 483.877 Z M 228.976 483.489 L 228.879 483.295 L 228.976 483.489 Z M 230.723 480.965 L 230.626 480.965 L 230.723 480.965 Z M 231.305 481.159 L 230.917 480.965 L 230.917 481.062 L 231.305 481.159 Z M 230.723 480.771 L 230.723 480.577 L 230.529 480.771 L 230.723 480.771 Z M 215.193 476.209 L 214.999 475.724 L 214.902 475.433 L 215.193 476.209 Z M 216.649 474.462 L 216.746 474.462 L 216.843 474.559 L 216.649 474.462 Z M 214.028 473.977 L 213.252 473.006 L 213.834 473.783 L 214.028 473.977 Z M 212.475 472.424 L 212.281 472.424 L 212.572 472.521 L 212.475 472.424 Z M 212.669 471.356 Z M 212.475 471.259 L 212.669 471.356 L 212.475 471.259 Z M 238.197 478.927 L 237.129 479.024 L 237.712 479.315 L 238.197 478.927 Z M 211.407 469.512 L 210.631 472.424 L 213.057 472.812 L 216.261 476.112 L 218.202 475.239 L 211.407 469.512 Z M 228.393 470.677 L 228.393 470.482 L 228.393 470.58 L 228.393 470.677 Z M 223.54 460.388 L 223.346 460.291 L 223.443 460.388 L 223.54 460.388 Z M 226.355 461.358 L 226.646 461.261 L 226.549 461.261 L 226.355 461.358 Z M 228.296 460.776 L 228.588 460.776 L 229.461 460.388 L 228.296 460.776 Z M 231.791 459.708 L 231.985 459.514 L 231.694 459.708 L 231.791 459.708 Z M 232.276 459.611 L 232.858 459.32 L 232.373 459.417 L 232.276 459.611 Z M 233.732 459.029 L 233.247 459.126 L 233.247 459.223 L 233.732 459.029 Z M 234.314 458.932 Z M 296.046 441.46 L 295.658 441.169 L 294.979 440.878 L 296.046 441.46 Z M 245.185 439.325 L 246.059 438.16 L 245.574 438.549 L 245.185 439.325 Z M 246.35 437.966 L 246.738 437.384 L 246.544 437.578 L 246.35 437.966 Z M 246.932 437.19 L 247.612 436.607 L 247.224 436.801 L 246.932 437.19 Z M 277.507 437.384 L 277.993 437.869 L 278.284 437.869 L 277.507 437.384 Z M 261.88 430.978 L 257.901 434.278 L 255.474 433.598 L 249.844 436.801 L 248.777 436.122 L 242.371 443.305 L 235.867 444.761 L 236.45 448.255 L 239.362 452.234 L 244.797 457.476 L 243.924 459.514 L 248 461.261 L 245.865 461.65 L 243.244 459.611 L 244.603 462.62 L 242.856 463.688 L 237.323 458.641 L 232.955 459.417 L 225.482 462.232 L 228.879 466.017 L 228.393 468.347 L 230.626 471.065 L 238.003 473.977 L 243.341 471.259 L 244.215 473.297 L 242.759 479.412 L 238.294 479.412 L 233.052 481.742 L 232.761 480.092 L 230.044 481.159 L 228.782 483.974 L 224.317 487.371 L 224.317 492.322 L 226.064 493.098 L 224.705 497.272 L 230.529 502.319 L 234.217 500.766 L 233.441 506.978 L 234.508 508.337 L 238.973 509.308 L 240.623 511.152 L 244.506 511.443 L 246.35 513.384 L 250.33 512.219 L 248.486 514.743 L 247.03 519.887 L 235.188 527.555 L 233.635 529.108 L 231.402 528.235 L 227.811 529.108 L 222.667 532.506 L 230.723 530.176 L 231.888 531.923 L 242.273 528.526 L 242.565 529.885 L 246.641 525.808 L 255.183 519.887 L 255.862 520.276 L 263.336 514.355 L 261.395 512.025 L 263.919 507.852 L 270.519 499.99 L 275.566 499.019 L 277.119 500.087 L 271.004 501.834 L 269.354 508.337 L 269.548 511.831 L 271.684 511.637 L 281.972 505.425 L 282.749 503.096 L 281.875 499.504 L 284.981 500.281 L 287.214 498.825 L 293.62 502.707 L 293.135 503.775 L 307.694 505.619 L 311.091 504.552 L 312.062 506.007 L 324.68 512.025 L 326.815 510.764 L 327.01 503.484 L 328.66 506.784 L 336.813 512.705 L 337.492 515.131 L 344.578 519.111 L 346.422 524.255 L 348.169 520.276 L 351.761 527.264 L 354.187 523.285 L 352.246 518.334 L 344.772 517.558 L 333.319 506.59 L 327.107 502.028 L 322.351 506.687 L 319.536 506.687 L 313.032 502.416 L 306.626 502.125 L 297.502 444.567 L 295.949 441.849 L 292.261 439.616 L 286.728 440.684 L 282.458 439.81 L 277.022 437.675 L 271.295 438.063 L 269.839 435.346 L 265.277 434.666 L 264.501 433.016 L 262.463 435.346 L 261.88 430.978 Z"
      style="stroke-width:0.97063118000000004;fill:#006064;stroke:#547876" />
</svg>